<?xml version="1.0" encoding="UTF-8" standalone="no"?>
<!-- Created with Inkscape (http://www.inkscape.org/) -->

<svg
   xmlns:dc="http://purl.org/dc/elements/1.1/"
   xmlns:cc="http://creativecommons.org/ns#"
   xmlns:rdf="http://www.w3.org/1999/02/22-rdf-syntax-ns#"
   xmlns:svg="http://www.w3.org/2000/svg"
   xmlns="http://www.w3.org/2000/svg"
   xmlns:sodipodi="http://sodipodi.sourceforge.net/DTD/sodipodi-0.dtd"
   xmlns:inkscape="http://www.inkscape.org/namespaces/inkscape"
   width="1280"
   height="720"
   id="svg1901"
   sodipodi:version="0.32"
   inkscape:version="0.47 r22583"
   sodipodi:docname="gospace.svg"
   version="1.1">
  <sodipodi:namedview
     id="base"
     pagecolor="#ffffff"
     bordercolor="#666666"
     borderopacity="1.0"
     inkscape:pageopacity="0.0"
     inkscape:pageshadow="2"
     inkscape:zoom="6.6867011"
     inkscape:cx="707.1854"
     inkscape:cy="554.32053"
     inkscape:document-units="px"
     inkscape:current-layer="layer1"
     inkscape:window-width="1280"
     inkscape:window-height="949"
     inkscape:window-x="0"
     inkscape:window-y="25"
     showgrid="false"
     inkscape:window-maximized="1"
     borderlayer="true" />
  <defs
     id="defs1903">
    <inkscape:perspective
       id="perspective2818"
       inkscape:persp3d-origin="640 : 240 : 1"
       inkscape:vp_z="1280 : 360 : 1"
       inkscape:vp_y="0 : 1000 : 0"
       inkscape:vp_x="0 : 360 : 1"
       sodipodi:type="inkscape:persp3d" />
  </defs>
  <metadata
     id="metadata1906">
    <rdf:RDF>
      <cc:Work
         rdf:about="">
        <dc:format>image/svg+xml</dc:format>
        <dc:type
           rdf:resource="http://purl.org/dc/dcmitype/StillImage" />
        <dc:title></dc:title>
        <dc:creator>
          <cc:Agent>
            <dc:title>Niko Kiirala</dc:title>
          </cc:Agent>
        </dc:creator>
      </cc:Work>
    </rdf:RDF>
  </metadata>
  <g
     style="display:inline"
     id="layer1"
     inkscape:groupmode="layer"
     inkscape:label="tausta">
    <rect
       y="-5.4390259"
       x="-9.9712286"
       height="744.8028"
       width="1303.703"
       id="rect3592"
       style="color:#000000;fill:#000000;fill-opacity:1;fill-rule:nonzero;stroke:none;stroke-width:1.79999995;marker:none;visibility:visible;display:inline;overflow:visible;enable-background:accumulate" />
    <g
       id="text3596"
       style="font-size:144px;font-style:normal;font-variant:normal;font-weight:normal;font-stretch:normal;text-align:center;line-height:125%;letter-spacing:0px;word-spacing:0px;text-anchor:middle;fill:#ffffff;fill-opacity:1;stroke:none;font-family:Phoenikia TT;-inkscape-font-specification:Phoenikia TT"
       transform="matrix(1.656851,0,0,1.6573736,-246.69048,-125.61134)">
      <path
         id="path3605"
         style="stroke:none"
         d="m 519.15789,157.42386 c 4.35622,-3.12708 9.08354,-5.12725 14.22645,-6.04308 -0.12295,2.47629 0.10232,6.26715 0.69216,11.47239 0.63891,5.38721 0.89204,9.59994 0.74043,12.53556 -0.43444,8.40832 -2.69096,15.66741 -6.85706,21.59277 -4.13322,5.87283 -10.3594,10.68305 -18.69228,14.33378 -5.8244,-3.00831 -9.34374,-7.14158 -10.60672,-12.32127 8.52889,-1.40976 14.71393,-4.37015 18.52395,-8.8023 -7.07344,-1.32836 -13.4416,-3.4388 -19.07491,-6.30067 -6.85612,-3.45622 -11.53175,-7.53649 -14.08313,-12.19298 3.7518,-10.01041 10.17102,-18.96664 19.06872,-27.00382 8.03172,-7.23562 15.77144,-11.97137 23.41315,-14.43576 2.01775,0.73396 4.01533,1.89646 6.00168,3.49854 2.15769,1.71725 3.71269,3.46007 4.65318,5.22866 -10.52679,2.43151 -19.76506,7.23919 -27.88615,14.65961 -4.30926,3.94712 -7.79113,8.45381 -10.42582,13.56664 4.24803,4.58731 12.01107,7.77921 23.29952,9.48729 0.47794,-5.276 0.0908,-10.06761 -1.12366,-14.40964 -0.5536,-1.98299 -1.17645,-3.60117 -1.86951,-4.86572" />
      <path
         id="path3607"
         style="stroke:none"
         d="m 570.75606,192.69263 c 0,0 -0.84396,-14.85581 -0.84396,-14.85581 -2.57603,-1.24146 -4.9804,-2.7259 -7.21006,-4.44644 -5.17574,-3.99178 -7.74933,-9.13085 -7.81853,-15.30481 -0.0853,-7.60985 4.27942,-13.32798 12.92051,-17.35624 0,0 -0.60552,-10.65873 -0.60552,-10.65873 -6.50362,2.41965 -11.95182,5.4523 -16.3475,9.13696 -5.98197,5.01636 -9.17071,11.2744 -9.42266,18.9306 -0.26429,8.03118 2.57746,15.20697 8.71359,21.38493 4.55194,4.58924 11.39643,8.98529 20.61413,13.16954 z m -0.84396,-14.85581 c 0,0 0.84396,14.85581 0.84396,14.85581 5.29737,-2.51522 10.0323,-5.35307 14.20253,-8.49656 9.22406,-6.99053 12.89159,-15.85905 11.35925,-26.27243 -1.87578,-12.7465 -11.75095,-21.84147 -29.11934,-27.85304 0,0 0.60552,10.65873 0.60552,10.65873 9.15824,3.91223 14.21675,9.59508 15.00352,17.24711 0.85899,8.35538 -3.36188,15.05851 -12.89544,19.86038 z"
         sodipodi:nodetypes="cccscccscccccsccsc" />
      <path
         id="path3609"
         style="stroke:none"
         d="m 414.77038,261.86402 c 2.26761,1.62984 4.20869,4.58078 5.83464,8.91095 1.55069,4.04745 2.50386,8.30839 2.84171,12.79292 -12.5405,0.69503 -22.43265,4.83925 -29.85316,12.63204 -3.73681,3.91036 -6.62858,8.63423 -8.66366,14.22245 -3.41077,9.36564 -2.96544,18.41481 1.56572,27.0941 3.06908,5.84767 8.85572,12.58425 17.50746,20.28276 -5.10891,11.02849 -12.60886,23.48219 -22.71439,37.52991 -11.84085,16.47938 -23.42113,29.7566 -34.4628,39.30606 -2.98586,-2.91389 -5.76477,-7.04561 -8.32323,-12.34175 -2.86388,-5.97248 -4.33987,-11.41715 -4.47218,-16.36246 5.91007,-2.74563 12.49458,-7.21414 19.67548,-13.32305 7.46116,-6.39988 13.52009,-12.88226 18.21725,-19.43443 -9.94191,-10.78938 -13.60296,-25.1467 -11.42288,-42.45109 0.83248,-6.57142 2.70752,-13.40736 5.57526,-20.47833 7.37759,-18.19089 18.22756,-31.5015 32.52051,-40.69973 5.99437,-3.84734 11.36602,-6.39223 16.17427,-7.68035" />
      <path
         id="path3611"
         style="stroke:none"
         d="m 484.41646,306.73379 c -4.97252,12.9044 -12.42145,25.55796 -22.49951,37.85316 -9.55877,11.56014 -20.23311,21.3757 -31.94084,29.21104 -2.53527,11.88728 -4.1147,19.70825 -4.65544,23.08227 -7.58631,6.57855 -15.98203,9.84496 -25.04175,9.68277 4.53135,-13.40869 9.54098,-30.30662 14.87228,-49.99623 4.69424,-17.33687 7.64503,-30.34212 9.04811,-39.6143 2.83623,-1.91457 6.61763,-3.74071 11.33622,-5.48067 4.6856,-1.72767 8.23759,-2.5757 10.68119,-2.55312 -2.50478,8.68533 -5.09804,18.21681 -7.79396,28.67934 7.06847,-5.46684 13.54156,-12.24225 19.38514,-20.21174 2.507,-3.40782 4.47174,-6.48633 5.90829,-9.24737 -6.92806,-14.67079 -17.92673,-23.2331 -33.1389,-26.35942 6.95612,-9.39668 13.23502,-15.94372 18.97943,-19.88734 10.97724,2.49602 19.89041,9.80823 26.93692,22.47233 3.53522,6.3685 6.18661,13.79218 7.92282,22.36928" />
      <path
         id="path3613"
         style="stroke:none"
         d="m 564.94642,389.76519 c -3.11085,5.79028 -8.01592,10.89917 -14.74158,15.28371 -3.32576,2.17217 -6.16047,3.52477 -8.48819,4.04625 -0.25266,-13.65648 -0.83752,-25.0403 -1.7392,-34.39429 -7.51723,2.54482 -15.46283,6.58531 -23.91318,12.18841 -9.90745,6.49306 -17.86054,13.49444 -23.80346,21.04003 -7.37331,-6.86515 -12.47787,-16.9225 -15.34637,-29.81691 5.43639,-17.6909 10.85434,-32.54434 16.31052,-44.9528 2.89085,-6.58444 5.51057,-11.83393 7.88729,-15.83067 8.03929,0.0802 14.49428,2.34698 19.42971,6.86741 -7.20155,10.244 -13.73699,23.86548 -19.67101,41.41301 10.8602,-10.85275 22.41216,-18.08264 34.8535,-21.97937 -6.7333,-34.70185 -17.96695,-56.78599 -33.65883,-69.24772 6.61339,-6.26687 13.88745,-10.20987 21.9202,-11.95427 16.81263,21.74329 30.31406,60.91139 40.9606,127.33721" />
      <path
         id="path3615"
         style="stroke:none"
         d="m 631.60918,282.49107 c -21.63236,12.6949 -35.33065,34.1117 -40.68657,66.82094 5.97299,7.45645 14.3959,13.78743 25.30143,18.90017 11.90556,5.56421 23.11249,8.47146 33.42873,8.62574 -1.96499,16.79213 -5.15059,30.4722 -9.57638,40.48667 -19.28606,-5.0586 -37.49947,-16.69977 -54.0743,-34.10348 -7.41061,-7.77832 -13.0418,-15.58545 -16.9669,-23.41057 1.9025,-22.65318 7.435,-43.10815 16.17271,-61.67858 7.68654,-16.32613 16.02486,-27.90711 25.18023,-35.41142 3.52624,1.71467 7.24057,4.30615 11.17018,7.8082 4.32684,3.89061 7.68664,7.87722 10.05087,11.96233" />
      <path
         id="path3617"
         style="stroke:none"
         d="m 671.15854,350.5537 c 8.65875,8.64249 19.41889,15.68664 32.25585,20.986 11.45069,4.72288 22.37682,7.2801 32.62942,7.60323 0.7818,16.12912 -0.20585,29.58531 -3.07544,39.89646 -20.37119,-5.1159 -40.73601,-16.88359 -60.38115,-34.46808 -8.77967,-7.85624 -15.76086,-15.73966 -21.01661,-23.63935 -1.78641,-22.85832 0.46008,-43.48582 6.25526,-62.20252 5.09721,-16.44674 11.62878,-28.10867 19.65274,-35.66335 9.62572,4.47557 17.48866,10.69105 23.59516,18.79927 -10.0571,6.56108 -17.56214,15.74171 -22.48536,27.86565 -1.61692,3.97113 -2.99858,8.11198 -4.13967,12.43001 8.68684,0.0889 16.96242,-0.73348 24.77992,-2.45915 2.41455,13.94531 3.01463,25.25954 1.65798,33.51052 -8.4593,-1.63131 -18.35841,-2.51455 -29.7281,-2.65869" />
    </g>
  </g>
</svg>
