<?xml version="1.0" encoding="UTF-8" standalone="no"?>
<!-- Created with Inkscape (http://www.inkscape.org/) -->

<svg
   xmlns:dc="http://purl.org/dc/elements/1.1/"
   xmlns:cc="http://creativecommons.org/ns#"
   xmlns:rdf="http://www.w3.org/1999/02/22-rdf-syntax-ns#"
   xmlns:svg="http://www.w3.org/2000/svg"
   xmlns="http://www.w3.org/2000/svg"
   xmlns:sodipodi="http://sodipodi.sourceforge.net/DTD/sodipodi-0.dtd"
   xmlns:inkscape="http://www.inkscape.org/namespaces/inkscape"
   width="100"
   height="100"
   id="svg1901"
   sodipodi:version="0.32"
   inkscape:version="0.47 r22583"
   sodipodi:docname="Uusi asiakirja 10"
   version="1.1">
  <defs
     id="defs1903">
    <inkscape:perspective
       sodipodi:type="inkscape:persp3d"
       inkscape:vp_x="0 : 526.18109 : 1"
       inkscape:vp_y="0 : 1000 : 0"
       inkscape:vp_z="744.09448 : 526.18109 : 1"
       inkscape:persp3d-origin="372.04724 : 350.78739 : 1"
       id="perspective4219" />
    <inkscape:perspective
       id="perspective4743"
       inkscape:persp3d-origin="0.5 : 0.33333333 : 1"
       inkscape:vp_z="1 : 0.5 : 1"
       inkscape:vp_y="0 : 1000 : 0"
       inkscape:vp_x="0 : 0.5 : 1"
       sodipodi:type="inkscape:persp3d" />
    <inkscape:perspective
       id="perspective4743-0"
       inkscape:persp3d-origin="0.5 : 0.33333333 : 1"
       inkscape:vp_z="1 : 0.5 : 1"
       inkscape:vp_y="0 : 1000 : 0"
       inkscape:vp_x="0 : 0.5 : 1"
       sodipodi:type="inkscape:persp3d" />
    <inkscape:perspective
       id="perspective4786"
       inkscape:persp3d-origin="0.5 : 0.33333333 : 1"
       inkscape:vp_z="1 : 0.5 : 1"
       inkscape:vp_y="0 : 1000 : 0"
       inkscape:vp_x="0 : 0.5 : 1"
       sodipodi:type="inkscape:persp3d" />
  </defs>
  <sodipodi:namedview
     id="base"
     pagecolor="#ffffff"
     bordercolor="#666666"
     borderopacity="1.0"
     inkscape:pageopacity="0.0"
     inkscape:pageshadow="2"
     inkscape:zoom="5.183948"
     inkscape:cx="52.596634"
     inkscape:cy="42.896278"
     inkscape:document-units="px"
     inkscape:current-layer="layer1"
     inkscape:window-width="1280"
     inkscape:window-height="949"
     inkscape:window-x="0"
     inkscape:window-y="25"
     showgrid="false"
     borderlayer="true"
     inkscape:window-maximized="1" />
  <metadata
     id="metadata1906">
    <rdf:RDF>
      <cc:Work
         rdf:about="">
        <dc:format>image/svg+xml</dc:format>
        <dc:type
           rdf:resource="http://purl.org/dc/dcmitype/StillImage" />
        <dc:title></dc:title>
      </cc:Work>
    </rdf:RDF>
  </metadata>
  <g
     inkscape:label="Taso 1"
     inkscape:groupmode="layer"
     id="layer1"
     transform="translate(0,-952.36218)">
    <path
       sodipodi:type="arc"
       style="color:#000000;fill:#fdf6a8;fill-opacity:1;fill-rule:nonzero;stroke:none;stroke-width:2.77056741999999989;stroke-miterlimit:4;stroke-opacity:1;stroke-dasharray:none;marker:none;visibility:visible;display:inline;overflow:visible;enable-background:accumulate"
       id="path4221"
       sodipodi:cx="47.469658"
       sodipodi:cy="47.739185"
       sodipodi:rx="38.726307"
       sodipodi:ry="38.726307"
       d="m 86.195965,47.739185 a 38.726307,38.726307 0 1 1 -77.452614,0 38.726307,38.726307 0 1 1 77.452614,0 z"
       transform="matrix(0.64968641,0,0,0.64968641,19.159608,971.34668)" />
    <path
       style="fill:#fdf6a8;stroke:none;stroke-width:1.80000000000000004;stroke-linecap:butt;stroke-linejoin:miter;stroke-opacity:1;color:#000000;fill-opacity:1;fill-rule:nonzero;stroke-miterlimit:4;stroke-dasharray:none;stroke-dashoffset:0;marker:none;visibility:visible;display:inline;overflow:visible;enable-background:accumulate"
       d="m 97.616749,995.53022 c 0.329976,3.19487 -8.207546,4.43718 -8.207546,4.43718 0,0 7.862425,-2.07634 7.504927,1.4247 -0.337943,3.3096 -8.994533,4.1953 -11.533652,2.0596 0,0 -5.283389,-0.571 -5.283389,-0.571 l -1.118152,-10.30881 c 0,0 4.288645,-1.38032 4.288645,-1.38032 1.245274,-3.26688 5.602422,-8.92841 8.747514,-6.7946 4.6073,3.12586 -3.168205,6.22424 -3.168205,6.22424 0,0 7.274015,-2.16978 7.810766,0.044 0.536752,2.2138 -7.60824,4.37307 -7.640369,4.37266 2.898251,-0.59934 6.389032,-2.01429 8.599461,0.49235 z"
       id="path4733"
       sodipodi:nodetypes="ccsccccscscc" />
    <path
       sodipodi:nodetypes="cscsccccsccc"
       id="path4756"
       d="m 11.735364,996.93544 c 0,0 -8.3060873,-2.34816 -8.5994613,0.49232 -0.329976,3.19484 8.2075463,4.43714 8.2075463,4.43714 0,0 -7.8624253,-2.0763 -7.5049273,1.4247 0.337943,3.3096 8.9945333,4.1953 11.5336523,2.0596 0,0 5.283389,-0.571 5.283389,-0.571 l 1.118152,-10.30877 c 0,0 -4.288645,-1.38032 -4.288645,-1.38032 -1.245274,-3.26688 -5.602422,-8.92841 -8.7475143,-6.7946 -4.6073,3.12586 3.1682053,6.22424 3.1682053,6.22424 0,0 -7.2740153,-2.16978 -7.8107663,0.044 -0.4766266,1.88976 5.0876199,2.9178 7.6403693,4.37269 z"
       style="color:#000000;fill:#fdf6a8;fill-opacity:1;fill-rule:nonzero;stroke:none;stroke-width:1.79999994999999990;stroke-linecap:butt;stroke-linejoin:miter;stroke-miterlimit:4;stroke-opacity:1;stroke-dasharray:none;stroke-dashoffset:0;marker:none;visibility:visible;display:inline;overflow:visible;enable-background:accumulate" />
    <path
       style="font-size:medium;font-style:normal;font-variant:normal;font-weight:normal;font-stretch:normal;text-indent:0;text-align:start;text-decoration:none;line-height:normal;letter-spacing:normal;word-spacing:normal;text-transform:none;direction:ltr;block-progression:tb;writing-mode:lr-tb;text-anchor:start;color:#000000;fill:#ff5200;fill-opacity:1;stroke:none;stroke-width:3.0999999;marker:none;visibility:visible;display:inline;overflow:visible;enable-background:accumulate;font-family:Bitstream Vera Sans;-inkscape-font-specification:Bitstream Vera Sans"
       d="m 40.15625,989.48718 c -3.451605,0.14105 -7.017671,2.12754 -8.46875,5.875 a 1.5581972,1.5581972 0 1 0 2.90625,1.125 c 0.968563,-2.50135 3.334947,-3.81011 5.6875,-3.90625 2.352553,-0.0961 4.399096,0.91001 5.125,3.28125 a 1.5519959,1.5519959 0 1 0 2.96875,-0.90625 c -1.156987,-3.77942 -4.767145,-5.6098 -8.21875,-5.46875 z"
       id="path4758" />
    <path
       style="font-size:medium;font-style:normal;font-variant:normal;font-weight:normal;font-stretch:normal;text-indent:0;text-align:start;text-decoration:none;line-height:normal;letter-spacing:normal;word-spacing:normal;text-transform:none;direction:ltr;block-progression:tb;writing-mode:lr-tb;text-anchor:start;color:#000000;fill:#ff5200;fill-opacity:1;stroke:none;stroke-width:3.0999999;marker:none;visibility:visible;display:inline;overflow:visible;enable-background:accumulate;font-family:Bitstream Vera Sans;-inkscape-font-specification:Bitstream Vera Sans"
       d="m 59.96875,989.26843 c -3.604728,0.0779 -7.379182,1.9126 -8.84375,5.6875 a 1.550155,1.550155 0 1 0 2.875,1.125 c 0.933234,-2.40539 3.415278,-3.66224 6.03125,-3.71875 2.615972,-0.0565 5.015424,1.12138 5.84375,3.25 a 1.550155,1.550155 0 1 0 2.875,-1.125 c -1.403886,-3.60769 -5.176522,-5.29662 -8.78125,-5.21875 z"
       id="path4760" />
    <path
       style="font-size:medium;font-style:normal;font-variant:normal;font-weight:normal;font-stretch:normal;text-indent:0;text-align:start;text-decoration:none;line-height:normal;letter-spacing:normal;word-spacing:normal;text-transform:none;direction:ltr;block-progression:tb;writing-mode:lr-tb;text-anchor:start;color:#000000;fill:#ff5200;fill-opacity:1;stroke:none;stroke-width:3.0999999;marker:none;visibility:visible;display:inline;overflow:visible;enable-background:accumulate;font-family:Bitstream Vera Sans;-inkscape-font-specification:Bitstream Vera Sans"
       d="m 58.78125,56.125 c -0.650286,0.07563 -1.22137,0.606871 -1.34375,1.25 -0.235292,1.112886 -0.46686,2.008167 -0.46875,2.90625 -1.60894,2.912509 -3.884863,4.200005 -6.21875,4.25 -2.193528,0.04653 -4.526707,-1.032245 -6.375,-3.4375 0.27566,-1.26223 -0.215501,-2.400465 -0.90625,-3.65625 -0.292253,-0.551706 -0.943009,-0.890099 -1.5625,-0.8125 -1.011728,0.122969 -1.664911,1.429336 -1.15625,2.3125 0.739184,1.197512 0.329563,1.79189 -0.65625,2.53125 -0.768785,0.383354 -1.078464,1.472748 -0.626291,2.20318 0.452172,0.730432 1.565355,0.939008 2.251291,0.42182 0.248151,-0.153371 0.488201,-0.311002 0.71875,-0.46875 2.312704,2.643475 5.350642,4.064731 8.375,4 2.878762,-0.06194 5.643788,-1.504495 7.6875,-4.09375 0.509829,0.429474 1.114496,0.812422 1.8125,1.1875 0.715649,0.465217 1.803025,0.188105 2.208732,-0.562884 C 62.926938,63.404878 62.562639,62.343528 61.78125,62 60.422512,61.2698 60.191339,60.93715 60.125,60.71875 c -0.06634,-0.2184 -0.0047,-1.0393 0.34375,-2.6875 0.05685,-1.339517 -0.442487,-1.876726 -1.6875,-1.90625 z"
       transform="translate(0,952.36218)"
       id="path4762"
       sodipodi:nodetypes="cccsccsccsccsccscscc" />
    <path
       style="color:#000000;fill:#ffd15e;fill-opacity:1;fill-rule:nonzero;stroke:none;stroke-width:1.79999994999999990;stroke-linecap:butt;stroke-linejoin:miter;stroke-miterlimit:4;stroke-opacity:1;stroke-dasharray:none;stroke-dashoffset:0;marker:none;visibility:visible;display:inline;overflow:visible;enable-background:accumulate"
       d="m 41.198272,948.06315 4.162081,26.38216 c 1.992232,-1.35047 6.890451,-1.66693 9.133073,-0.0463 0,0 4.308302,-26.44384 4.308302,-26.44384 l -4.06474,7.8964 -0.469908,-9.60829 -3.096569,8.59039 -2.602564,-10.39483 -2.072413,13.20175 -5.297262,-9.57744 z"
       id="path4768"
       sodipodi:nodetypes="cccccccccc" />
    <path
       sodipodi:nodetypes="cccccccccc"
       id="path4799"
       d="m 84.794348,948.88932 -20.791412,28.92891 c 2.398267,0.20266 5.602945,3.01979 7.130631,5.70695 0,0 27.416433,-23.65063 27.416433,-23.65063 l -8.125902,3.58363 7.700605,-9.37046 -15.315946,11.05567 9.994955,-14.43844 -9.912794,8.96201 1.90343,-10.77764 z"
       style="color:#000000;fill:#ffd15e;fill-opacity:1;fill-rule:nonzero;stroke:none;stroke-width:1.79999994999999990;stroke-linecap:butt;stroke-linejoin:miter;stroke-miterlimit:4;stroke-opacity:1;stroke-dasharray:none;stroke-dashoffset:0;marker:none;visibility:visible;display:inline;overflow:visible;enable-background:accumulate"
       inkscape:transform-center-y="-33.730393"
       inkscape:transform-center-x="-27.800661" />
    <path
       inkscape:transform-center-x="-39.67069"
       inkscape:transform-center-y="17.598342"
       style="color:#000000;fill:#ffd15e;fill-opacity:1;fill-rule:nonzero;stroke:none;stroke-width:1.79999994999999990;stroke-linecap:butt;stroke-linejoin:miter;stroke-miterlimit:4;stroke-opacity:1;stroke-dasharray:none;stroke-dashoffset:0;marker:none;visibility:visible;display:inline;overflow:visible;enable-background:accumulate"
       d="m 107.71979,1016.9614 -29.916748,-8.4124 c 0.500998,2.3541 -1.266617,6.2376 -3.395793,8.4785 0,0 31.965741,23.4078 31.965741,23.4078 l -10.965564,-13.864 9.078174,3.1823 -11.190217,-8.6169 15.007647,4.0165 -8.449816,-6.4895 7.866576,-1.7023 z"
       id="path4801"
       sodipodi:nodetypes="cccccccccc" />
    <path
       sodipodi:nodetypes="cccccccccc"
       id="path4803"
       d="m 92.098287,1053.5437 -24.345492,-29.1603 c -1.07183,2.155 -4.87133,4.0966 -7.932327,4.5271 0,0 16.070268,38.1252 16.070268,38.1252 l -4.206104,-21.2743 7.948891,16.2504 -2.800109,-11.6562 7.373416,7.7754 -4.68037,-12.5169 12.571827,7.9296 z"
       style="color:#000000;fill:#ffd15e;fill-opacity:1;fill-rule:nonzero;stroke:none;stroke-width:1.79999994999999990;stroke-linecap:butt;stroke-linejoin:miter;stroke-miterlimit:4;stroke-opacity:1;stroke-dasharray:none;stroke-dashoffset:0;marker:none;visibility:visible;display:inline;overflow:visible;enable-background:accumulate"
       inkscape:transform-center-y="37.298442"
       inkscape:transform-center-x="-22.338182" />
    <path
       inkscape:transform-center-x="9.81335"
       inkscape:transform-center-y="42.389692"
       style="color:#000000;fill:#ffd15e;fill-opacity:1;fill-rule:nonzero;stroke:none;stroke-width:1.79999994999999990;stroke-linecap:butt;stroke-linejoin:miter;stroke-miterlimit:4;stroke-opacity:1;stroke-dasharray:none;stroke-dashoffset:0;marker:none;visibility:visible;display:inline;overflow:visible;enable-background:accumulate"
       d="m 48.497492,1057.3879 0.797424,-26.676 c -2.209513,0.9545 -6.364905,-0.014 -8.980963,-1.661 0,0 -9.130061,25.154 -9.130061,25.154 l 5.468755,-6.9975 -1.333664,9.5269 4.647119,-7.8605 0.614535,10.698 4.502589,-12.582 3.414266,10.3981 z"
       id="path4805"
       sodipodi:nodetypes="cccccccccc" />
    <path
       sodipodi:nodetypes="cccccccccc"
       id="path4807"
       d="m 12.737526,1068.2062 22.444961,-41.8688 c -2.390557,-0.2797 -5.503061,-3.1983 -6.943331,-5.9336 0,0 -27.50579019,33.6564 -27.50579019,33.6564 l 10.53136019,-6.0929 -8.2178434,10.3522 7.9577374,-4.4785 -1.5452854,6.0172 6.9182284,-5.0867 -3.640037,13.4347 z"
       style="color:#000000;fill:#ffd15e;fill-opacity:1;fill-rule:nonzero;stroke:none;stroke-width:1.79999994999999990;stroke-linecap:butt;stroke-linejoin:miter;stroke-miterlimit:4;stroke-opacity:1;stroke-dasharray:none;stroke-dashoffset:0;marker:none;visibility:visible;display:inline;overflow:visible;enable-background:accumulate"
       inkscape:transform-center-y="41.89247"
       inkscape:transform-center-x="32.013449" />
    <path
       inkscape:transform-center-x="31.130262"
       inkscape:transform-center-y="-30.752193"
       style="color:#000000;fill:#ffd15e;fill-opacity:1;fill-rule:nonzero;stroke:none;stroke-width:1.79999994999999990;stroke-linecap:butt;stroke-linejoin:miter;stroke-miterlimit:4;stroke-opacity:1;stroke-dasharray:none;stroke-dashoffset:0;marker:none;visibility:visible;display:inline;overflow:visible;enable-background:accumulate"
       d="m -1.4834828,961.9914 28.3010118,24.03444 c 0.41516,-2.50566 3.507942,-5.57544 6.387251,-6.52839 0,0 -22.390667,-30.10221 -22.390667,-30.10221 l 2.758754,8.4417 -7.1640686,-6.41999 3.9330096,8.24103 -9.2225972,-5.45598 7.9327166,10.75414 -10.5354102,-2.96474 z"
       id="path4809"
       sodipodi:nodetypes="cccccccccc" />
    <path
       sodipodi:nodetypes="ccccccccccc"
       id="path4811"
       d="m 1.9983097,1029.285 23.3201273,-12.9394 c -1.952075,-1.408 -3.250315,-5.4724 -3.176969,-8.5629 0,0 -26.2841504,5.0044 -26.2841504,5.0044 l 8.8114662,1.1092 -8.8639095,3.7378 9.1313571,-0.039 -8.870932,6.011 13.1114271,-2.5828 -7.1784168,8.2613 0,4e-4 z"
       style="color:#000000;fill:#ffd15e;fill-opacity:1;fill-rule:nonzero;stroke:none;stroke-width:1.79999994999999990;stroke-linecap:butt;stroke-linejoin:miter;stroke-miterlimit:4;stroke-opacity:1;stroke-dasharray:none;stroke-dashoffset:0;marker:none;visibility:visible;display:inline;overflow:visible;enable-background:accumulate"
       inkscape:transform-center-y="16.318342"
       inkscape:transform-center-x="39.863217" />
    <path
       style="font-size:medium;font-style:normal;font-variant:normal;font-weight:normal;font-stretch:normal;text-indent:0;text-align:start;text-decoration:none;line-height:normal;letter-spacing:normal;word-spacing:normal;text-transform:none;direction:ltr;block-progression:tb;writing-mode:lr-tb;text-anchor:start;color:#000000;fill:#ffb000;fill-opacity:1;fill-rule:nonzero;stroke:none;stroke-width:2.77056742;marker:none;visibility:visible;display:inline;overflow:visible;enable-background:accumulate;font-family:Bitstream Vera Sans;-inkscape-font-specification:Bitstream Vera Sans"
       d="m 23.930743,1002.3692 c 0,0 1.80694,0 1.80694,0 0,-13.40906 10.852663,-24.26172 24.261727,-24.26172 13.409063,0 24.261727,10.85266 24.261727,24.26172 0,0 1.80694,0 1.80694,0 0,-14.38185 -11.686811,-26.06866 -26.068667,-26.06866 -14.381856,0 -26.068667,11.68681 -26.068667,26.06866 z m 1.80694,0 c 0,0 -1.80694,0 -1.80694,0 0,14.3819 11.686811,26.0484 26.068667,26.0484 14.381856,0 26.068667,-11.6665 26.068667,-26.0484 0,0 -1.80694,0 -1.80694,0 0,13.4091 -10.852664,24.2617 -24.261727,24.2617 -13.409064,0 -24.261727,-10.8526 -24.261727,-24.2617 z"
       id="path4834"
       sodipodi:nodetypes="cccsccsccsscss" />
    <path
       style="font-size:medium;font-style:normal;font-variant:normal;font-weight:normal;font-stretch:normal;text-indent:0;text-align:start;text-decoration:none;line-height:normal;letter-spacing:normal;word-spacing:normal;text-transform:none;direction:ltr;block-progression:tb;writing-mode:lr-tb;text-anchor:start;color:#000000;fill:#ffb000;fill-opacity:1;fill-rule:nonzero;stroke:none;stroke-width:1.79999995;marker:none;visibility:visible;display:inline;overflow:visible;enable-background:accumulate;font-family:Bitstream Vera Sans;-inkscape-font-specification:Bitstream Vera Sans"
       d="m 20.540834,1004.1453 0.01766,1.6056 -4.995994,0.4988 c -1.732333,1.1918 -4.388783,1.3672 -6.90625,1 -1.3449072,-0.1962 -2.6450727,-0.5588 -3.6875,-1.1562 -1.0424273,-0.5975 -1.907733,-1.5092 -2.03125,-2.7188 -0.061164,-0.599 0.075346,-1.195 0.375,-1.6562 0.3081288,-0.6641 0.9631303,-0.744 1.5,-0.9998 -0.3521799,-0.1885 -0.7540761,-0.2998 -1.0625,-0.5312 -0.8854175,-0.6644 -1.6238533,-1.64465 -1.5,-2.8438 0.059617,-0.57721 0.3699216,-1.10283 0.78125,-1.4375 0.4113284,-0.33467 0.876238,-0.51593 1.375,-0.625 0.3357655,-0.0734 0.7341189,-0.0103 1.09375,-0.0312 -0.4541335,-0.22061 -0.9489809,-0.40459 -1.3125,-0.6875 -0.312099,-0.2429 -0.6157641,-0.53259 -0.8125,-0.90625 -0.196736,-0.37366 -0.2689703,-0.86558 -0.15625,-1.3125 0.1259041,-0.51928 0.5019759,-0.9411 0.90625,-1.1875 0.4042741,-0.2464 0.8255318,-0.3726 1.28125,-0.4375 0.6761557,-0.0963 1.4201372,-0.0104 2.15625,0.0625 -0.5701105,-0.57478 -1.059748,-1.22455 -1.15625,-2.09375 -0.1226613,-1.10483 0.5061857,-2.23872 1.8125,-3.125 0.5095901,-0.34573 1.0913119,-0.53475 1.65625,-0.59375 0.568749,-0.12767 1.10656,0.081 1.65625,0.1557 1.063379,0.34428 2.024388,1.03678 2.90625,1.875 1.622305,1.54202 2.886704,3.59388 3.625,5.3125 l 3.816154,1.32231 -0.242676,1.72913 -4.823478,-1.55089 c -0.751375,-2.1036 -2.07807,-3.88792 -3.59375,-5.5 -0.756221,-0.7188 -1.572942,-1.24954 -2.25,-1.46875 -0.686054,-0.29163 -1.0982003,-0.0177 -1.71875,0.18755 -0.997336,0.67665 -1.101943,1.11348 -1.0625,1.46875 0.039443,0.35527 0.4012783,0.89622 1,1.40625 1.164743,0.99221 2.87156,1.7095 2.96875,1.75 -0.05673,0.51653 -0.48071,1.39483 -0.59375,1.6878 -0.0911,-0.0268 -1.750829,-0.5035 -3.5,-0.75 -1.0287597,-0.23778 -2.0132335,-0.12853 -3,0.0938 0.1528459,0.70416 1.3467239,1.06766 2.0625,1.40615 1.5126246,0.61867 3.38907,1.20704 4.8125,1.96875 L 11.5,997.81275 c 0,0 -2.0494462,-0.59151 -4.0625,-0.8125 -1.0065269,-0.11054 -2.0138711,-0.10927 -2.65625,0.0312 -0.414426,-0.13881 -0.5708883,0.38059 -0.75,0.5 -0.041135,0.39827 0.1586878,0.75162 0.78125,1.21875 0.6225622,0.46713 1.5974988,0.9121 2.59375,1.25 1.9925023,0.6758 4.0625,0.9688 4.0625,0.9688 l -0.25,1.781 c 0,0 -0.09175,-0.031 -0.09375,-0.031 l 0,0.031 c 0,0 -1.9335652,-0.5178 -3.71875,-0.5938 -1.4968772,-0.2324 -1.9401764,0.2201 -2.6875,1.0313 0.045454,0.4452 0.4011726,0.911 1.15625,1.3437 0.7550774,0.4328 1.8523769,0.7656 3.03125,0.9376 2.357746,0.3439 5.037917,-0.1085 5.875,-0.8126 l 5.759584,-0.5109 z"
       id="path4840"
       sodipodi:nodetypes="cccsssccsssscssssscssccscccccccsscccccccsccssccccccsscc" />
    <path
       style="font-size:medium;font-style:normal;font-variant:normal;font-weight:normal;font-stretch:normal;text-indent:0;text-align:start;text-decoration:none;line-height:normal;letter-spacing:normal;word-spacing:normal;text-transform:none;direction:ltr;block-progression:tb;writing-mode:lr-tb;text-anchor:start;color:#000000;fill:#ffb000;fill-opacity:1;fill-rule:nonzero;stroke:none;stroke-width:1.79999995;marker:none;visibility:visible;display:inline;overflow:visible;enable-background:accumulate;font-family:Bitstream Vera Sans;-inkscape-font-specification:Bitstream Vera Sans"
       d="m 80.182964,1002.0892 5.567036,0.5046 c 1.790752,1.2205 4.021124,1.1349 6.09375,0.9687 1.178873,-0.172 2.276173,-0.5048 3.03125,-0.9375 1.353815,-0.83 1.06745,-1.1033 0.65625,-2.0938 -0.455548,-0.197 -1.294908,-0.288 -2.1875,-0.25 -1.785183,0.076 -3.71875,0.5626 -3.71875,0.5626 l -0.4375,-1.75 c 1.409782,-0.20381 2.785845,-0.61565 4.15625,-0.99995 0.996251,-0.3379 1.971188,-0.78287 2.59375,-1.25 0.495787,-0.37201 0.57183,-0.65831 0.625,-0.96875 -0.815338,-0.70938 -1.719509,-0.93435 -2.90625,-0.84375 -1.513522,0.15329 -2.989134,0.53816 -4.46875,0.87495 l -0.34375,-1.7501 c 1.320066,-0.33932 2.59642,-0.84037 3.875,-1.31245 0.949857,-0.39305 1.858959,-0.84963 2.4375,-1.28125 1.226972,-0.58091 -0.05177,-0.77643 -0.0625,-0.93745 -2.035814,-0.16078 -4.089707,0.40025 -6,0.84365 L 88.5,989.7812 c 1.132974,-0.39387 2.084517,-1.11665 3.0625,-1.7812 0.598722,-0.51003 0.96056,-1.05098 1,-1.40625 0.03944,-0.35527 -0.06516,-0.76085 -1.0625,-1.4375 -0.553366,-0.37544 -1.041692,-0.40671 -1.71875,-0.1875 -0.871338,0.27374 -1.531137,0.87026 -2.21875,1.43785 l -3.59375,5.5 -4.827308,1.60175 -0.422692,-1.7896 3.9375,-1.25 c 0.732703,-1.73047 2.015345,-3.78405 3.65625,-5.34375 0.881862,-0.83822 1.842871,-1.53072 2.90625,-1.875 0.531689,-0.1721 1.091312,-0.2465 1.65625,-0.1875 0.623559,0.0142 1.117966,0.34097 1.65625,0.59405 1.306314,0.88628 1.935161,2.02017 1.8125,3.125 -0.09597,0.86441 -0.590408,1.52086 -1.15625,2.09375 0.736079,-0.0728 1.480125,-0.1275 2.15625,-0.0312 0.455718,0.0649 0.876976,0.15985 1.28125,0.40625 0.404274,0.2464 0.780346,0.69947 0.90625,1.21875 0.132451,0.54629 -0.02021,1.08743 -0.28125,1.5 -0.26104,0.41257 -0.631906,0.73332 -1.03125,1.03125 -0.220629,0.1646 -0.531875,0.25694 -0.78125,0.40625 1.2832,0.16373 2.46588,0.48208 3.03125,1.75 0.167857,1.41105 -0.530875,2.19062 -1.46875,3.125 -0.318027,0.23863 -0.729519,0.3693 -1.09375,0.5625 0.706487,-0.005 1.064293,0.57406 1.53125,0.99995 0.29965,0.46125 0.43616,1.02605 0.375,1.62505 -0.123517,1.2096 -0.988823,2.1213 -2.03125,2.7187 -1.042427,0.5974 -2.342593,0.9601 -3.6875,1.1563 -2.529621,0.369 -5.206317,0.2078 -6.9375,-1 l -4.608541,-0.3322 -0.364745,-1.9227 z"
       id="path4846"
       sodipodi:nodetypes="cccccscccsccccccccccssccccccssccscssssscccccsssccc" />
    <path
       style="font-size:medium;font-style:normal;font-variant:normal;font-weight:normal;font-stretch:normal;text-indent:0;text-align:start;text-decoration:none;line-height:normal;letter-spacing:normal;word-spacing:normal;text-transform:none;direction:ltr;block-progression:tb;writing-mode:lr-tb;text-anchor:start;color:#000000;fill:#ff9c38;fill-opacity:1;fill-rule:nonzero;stroke:none;stroke-width:1.79999995;marker:none;visibility:visible;display:inline;overflow:visible;enable-background:accumulate;font-family:Bitstream Vera Sans;-inkscape-font-specification:Bitstream Vera Sans"
       d="m 54.125,974.28125 -0.40625,-1.84375 3.21875,-18.90625 -1.40625,2.71875 -1.53125,3 -0.15625,-3.34375 -0.25,-5.09375 -1.5625,4.3125 -1.03125,2.78125 -0.6875,-2.84375 -1.53125,-6.09375 -1.40625,8.8125 -0.40625,2.59375 -1.25,-2.3125 -2.78125,-5.03125 3.09375,19.21875 -0.1875,2 -1.1875,0.78125 L 44.4375,973.625 40.3125,948.21875 42,947.625 l 4,7.28125 1.6875,-10.5938 1.75,-0.0937 1.875,7.53125 2.09375,-5.8125 1.75,0.25 0.3125,6.28125 2.53125,-4.9375 1.6875,0.5625 -4.34375,25.5 -0.1875,1.09375 -1.03125,-0.40625 z"
       id="path4852"
       sodipodi:nodetypes="ccccccccccccccccccccccccccccccccc" />
    <path
       style="font-size:medium;font-style:normal;font-variant:normal;font-weight:normal;font-stretch:normal;text-indent:0;text-align:start;text-decoration:none;line-height:normal;letter-spacing:normal;word-spacing:normal;text-transform:none;direction:ltr;block-progression:tb;writing-mode:lr-tb;text-anchor:start;color:#000000;fill:#ff9c38;fill-opacity:1;fill-rule:nonzero;stroke:none;stroke-width:1.79999995;marker:none;visibility:visible;display:inline;overflow:visible;enable-background:accumulate;font-family:Bitstream Vera Sans;-inkscape-font-specification:Bitstream Vera Sans"
       d="m 70.875,983.125 0.875,-1.6875 21.5,-18.25 -2.46875,1.09375 -1.0625,-1.40625 3.28125,-3.96875 -9.65625,6.96875 -1.28125,-1.25 5.53125,-8 -4.09375,3.71875 -1.9375,1.75 L 82,959.5 l 1.21875,-6.875 -17.25,23.875 -1.5,1.375 -1.59375,-0.125 0.9375,-1.28125 20.25,-28.09375 1.625,0.65625 -1.4375,8.1875 7.9375,-7.1875 1.34375,1.1875 -0.125,0.15625 -6.84375,9.9375 11.03125,-7.96875 1.21875,1.3125 -0.15625,0.15625 -5.125,6.28125 4.65625,-2.03125 0.9375,1.5 L 72.25,983.375 71.40625,984.09375 70.875,983.125 z"
       id="path4854"
       sodipodi:nodetypes="ccccccccccccccccccccccccccccccccc" />
    <path
       style="font-size:medium;font-style:normal;font-variant:normal;font-weight:normal;font-stretch:normal;text-indent:0;text-align:start;text-decoration:none;line-height:normal;letter-spacing:normal;word-spacing:normal;text-transform:none;direction:ltr;block-progression:tb;writing-mode:lr-tb;text-anchor:start;color:#000000;fill:#ff9c38;fill-opacity:1;fill-rule:nonzero;stroke:none;stroke-width:1.79999995;marker:none;visibility:visible;display:inline;overflow:visible;enable-background:accumulate;font-family:Bitstream Vera Sans;-inkscape-font-specification:Bitstream Vera Sans"
       d="m 76.3125,1017.1875 -1.84375,-0.4063 -0.6875,0.75 0.8125,0.5938 31.0625,22.875 0.1875,0.1562 1.25,-1.2812 -9.03125,-11.4375 6.125,2.1563 0.84375,-1.5626 -7.625,-5.875 10.65625,2.875 0.78125,-1.5937 -6.90625,-5.3125 5.96875,-1.2812 0.0625,-1.75 -29.21875,-8.0313 -1.40625,-0.375 0.28125,1.4375 1.78125,1 24.5,6.75 -4.25,0.9062 -1.90625,0.4063 1.5625,1.1875 4.875,3.75 -10.65625,-2.8438 -0.78125,1.5626 6.75,5.2187 -3.78125,-1.3437 -2.9375,-1.0313 1.90625,2.4375 6.8125,8.5938 -25.1875,-18.5313 z"
       id="path4856"
       sodipodi:nodetypes="ccccccccccccccccccccccccccccccccc" />
    <path
       style="font-size:medium;font-style:normal;font-variant:normal;font-weight:normal;font-stretch:normal;text-indent:0;text-align:start;text-decoration:none;line-height:normal;letter-spacing:normal;word-spacing:normal;text-transform:none;direction:ltr;block-progression:tb;writing-mode:lr-tb;text-anchor:start;color:#000000;fill:#ff9c38;fill-opacity:1;fill-rule:nonzero;stroke:none;stroke-width:1.79999995;marker:none;visibility:visible;display:inline;overflow:visible;enable-background:accumulate;font-family:Bitstream Vera Sans;-inkscape-font-specification:Bitstream Vera Sans"
       d="m 68.25,1026.6562 -0.8125,-1.8124 0.625,-1.2188 0.875,1.0312 23.84375,28.3126 -1.15625,1.3437 -10.3125,-6.5 3.75,10 -1.5,0.9375 -5.0625,-5.3438 1.9375,8.2188 0.0625,0.1875 -1.6875,0.5937 -4.90625,-10.0624 2.875,14.5312 -1.71875,0.5 -0.0625,-0.1562 -15.5,-37.0938 -0.46875,-1.0938 1.15625,-0.1562 1.3125,1.4062 11.78125,28.1563 -2.46875,-12.5 1.6875,-0.5625 4.375,8.9375 -0.90625,-3.75 -0.78125,-3.2813 2.3125,2.4688 4.3125,4.5312 -3.125,-8.3437 -0.9375,-2.5 2.25,1.4063 7.65625,4.8124 -19.40625,-23 z"
       id="path4858"
       sodipodi:nodetypes="cccccccccccccccccccccccccccccccccc" />
    <path
       style="font-size:medium;font-style:normal;font-variant:normal;font-weight:normal;font-stretch:normal;text-indent:0;text-align:start;text-decoration:none;line-height:normal;letter-spacing:normal;word-spacing:normal;text-transform:none;direction:ltr;block-progression:tb;writing-mode:lr-tb;text-anchor:start;color:#000000;fill:#ff9c38;fill-opacity:1;fill-rule:nonzero;stroke:none;stroke-width:1.79999995;marker:none;visibility:visible;display:inline;overflow:visible;enable-background:accumulate;font-family:Bitstream Vera Sans;-inkscape-font-specification:Bitstream Vera Sans"
       d="m 48.25,1032.7192 0.59375,-1.9067 1.28125,-0.5625 -0.03125,1.4062 -0.6875,25.75 -1.75,0.25 -2.625,-7.875 -3.59375,10.0938 -1.75,-0.25 -0.4375,-7.7188 -3.15625,5.2813 -1.65625,-0.5625 0.84375,-6.2188 -3.375,4.3438 -1.5625,-0.8438 9.03125,-24.25 0.375,-1.0312 0.9375,0.5941 0.0625,1.9059 -6.6875,17.9062 1.875,-2.375 L 38,1044 l -0.46875,3.3442 -0.6875,5.0312 2.34375,-3.9688 1.5,-2.5312 0.1875,2.9375 0.34375,6.2813 3.03125,-8.4063 0.875,-2.4687 0.8125,2.5 1.78125,5.4687 0.53125,-19.4687 z"
       id="path4860"
       sodipodi:nodetypes="ccccccccccccccccccccccccccccccccc" />
    <path
       style="font-size:medium;font-style:normal;font-variant:normal;font-weight:normal;font-stretch:normal;text-indent:0;text-align:start;text-decoration:none;line-height:normal;letter-spacing:normal;word-spacing:normal;text-transform:none;direction:ltr;block-progression:tb;writing-mode:lr-tb;text-anchor:start;color:#000000;fill:#ff9c38;fill-opacity:1;fill-rule:nonzero;stroke:none;stroke-width:1.79999995;marker:none;visibility:visible;display:inline;overflow:visible;enable-background:accumulate;font-family:Bitstream Vera Sans;-inkscape-font-specification:Bitstream Vera Sans"
       d="m 34.65625,1026.3438 -1.40625,1.375 -17.5625,33 1.5625,-5.7188 0.65625,-2.4688 -2.0625,1.5 -4.875,3.5938 0.90625,-3.5625 0.53125,-2.0313 -1.84375,1.0313 -3.96875,2.2187 5.375,-6.75 -1.15625,-1.3437 -6.25,3.5937 23.03125,-28.0624 0.8125,-1.8438 -0.65625,-1.1875 -0.84375,1.0313 -26.875,32.7812 1.15625,1.3438 6.40625,-3.7188 -5.25,6.625 1.15625,1.3438 6.09375,-3.4376 -1,3.9688 -0.625,2.4375 2.03125,-1.4687 4.8125,-3.5626 -2.875,10.75 -0.0625,0.1876 1.65625,0.6562 21.8125,-40.9688 0.625,-1.1562 -1.3125,-0.1562 z"
       id="path4862"
       sodipodi:nodetypes="cccccccccccccccccccccccccccccccccc" />
    <path
       style="font-size:medium;font-style:normal;font-variant:normal;font-weight:normal;font-stretch:normal;text-indent:0;text-align:start;text-decoration:none;line-height:normal;letter-spacing:normal;word-spacing:normal;text-transform:none;direction:ltr;block-progression:tb;writing-mode:lr-tb;text-anchor:start;color:#000000;fill:#ff9c38;fill-opacity:1;fill-rule:nonzero;stroke:none;stroke-width:1.79999995;marker:none;visibility:visible;display:inline;overflow:visible;enable-background:accumulate;font-family:Bitstream Vera Sans;-inkscape-font-specification:Bitstream Vera Sans"
       d="m 32.9375,979.6875 -1.65625,-1.03125 -17.875,-24.25 1.03125,3.15625 1.03125,3.1875 -2.5,-2.25 -3.8125,-3.40625 2,4.1875 1.28125,2.65625 -2.5625,-1.5 -5.40625,-3.1875 5.3125,7.1875 1.5625,2.09375 -2.53125,-0.71875 -6.59375,-1.875 23.59375,20 1.25,1.625 -0.28125,1.53125 -1.1875,-1 -27.65625,-23.40625 0.8125,-1.5625 8,2.25 L 0.40625,954.75 1.5625,953.4375 8.25,957.375 5.59375,951.8125 7,950.75 l 4.6875,4.15625 -1.71875,-5.21875 1.5625,-0.8125 21.75,29.46875 0.65625,0.90625 -1,0.4375 z"
       id="path4864"
       sodipodi:nodetypes="ccccccccccccccccccccccccccccccccc" />
    <path
       style="font-size:medium;font-style:normal;font-variant:normal;font-weight:normal;font-stretch:normal;text-indent:0;text-align:start;text-decoration:none;line-height:normal;letter-spacing:normal;word-spacing:normal;text-transform:none;direction:ltr;block-progression:tb;writing-mode:lr-tb;text-anchor:start;color:#000000;fill:#ff9c38;fill-opacity:1;fill-rule:nonzero;stroke:none;stroke-width:1.79999995;marker:none;visibility:visible;display:inline;overflow:visible;enable-background:accumulate;font-family:Bitstream Vera Sans;-inkscape-font-specification:Bitstream Vera Sans"
       d="m 25,1015.9375 -1.9375,0.5 -17,9.5313 3.78125,-4.3438 1.71875,-2 -2.5625,0.5 -8.78125,1.75 5.21875,-3.5312 2.4375,-1.6563 -2.9375,0 -4.59375,0.031 4.6875,-2 3.0625,-1.2813 -3.3125,-0.4375 -3,-0.375 18.8125,-3.4688 1.59375,-1.0309 0.03125,-1.0938 -1.09375,0.1876 -25.4375,4.6874 0.0625,1.7813 5.46875,0.6875 -5.75,2.4375 0.34375,1.7187 L 2,1018.5 l -6.4375,4.375 0.6875,1.625 10.53125,-2.0938 -5.46875,6.2813 -0.21875,0.25 0,0.3437 0,1.5313 1.34375,-0.75 22.46875,-12.5937 1.21875,-0.6876 -1.125,-0.8437 z"
       id="path4866"
       sodipodi:nodetypes="cccccccccccccccccccccccccccccccccccc" />
  </g>
</svg>
