<?xml version="1.0" encoding="UTF-8" standalone="no"?>
<!-- Created with Inkscape (http://www.inkscape.org/) -->

<svg
   xmlns:dc="http://purl.org/dc/elements/1.1/"
   xmlns:cc="http://creativecommons.org/ns#"
   xmlns:rdf="http://www.w3.org/1999/02/22-rdf-syntax-ns#"
   xmlns:svg="http://www.w3.org/2000/svg"
   xmlns="http://www.w3.org/2000/svg"
   xmlns:sodipodi="http://sodipodi.sourceforge.net/DTD/sodipodi-0.dtd"
   xmlns:inkscape="http://www.inkscape.org/namespaces/inkscape"
   width="1280"
   height="720"
   id="svg1901"
   sodipodi:version="0.32"
   inkscape:version="0.47 r22583"
   sodipodi:docname="isfun.svg"
   version="1.1">
  <defs
     id="defs1903">
    <inkscape:perspective
       sodipodi:type="inkscape:persp3d"
       inkscape:vp_x="0 : 360 : 1"
       inkscape:vp_y="0 : 1000 : 0"
       inkscape:vp_z="1280 : 360 : 1"
       inkscape:persp3d-origin="640 : 240 : 1"
       id="perspective2818" />
  </defs>
  <sodipodi:namedview
     id="base"
     pagecolor="#ffffff"
     bordercolor="#666666"
     borderopacity="1.0"
     inkscape:pageopacity="0.0"
     inkscape:pageshadow="2"
     inkscape:zoom="0.44194174"
     inkscape:cx="640"
     inkscape:cy="360"
     inkscape:document-units="px"
     inkscape:current-layer="layer1"
     inkscape:window-width="1280"
     inkscape:window-height="949"
     inkscape:window-x="0"
     inkscape:window-y="25"
     showgrid="false"
     inkscape:window-maximized="1"
     borderlayer="true" />
  <metadata
     id="metadata1906">
    <rdf:RDF>
      <cc:Work
         rdf:about="">
        <dc:format>image/svg+xml</dc:format>
        <dc:type
           rdf:resource="http://purl.org/dc/dcmitype/StillImage" />
        <dc:title />
        <dc:creator>
          <cc:Agent>
            <dc:title>Niko Kiirala</dc:title>
          </cc:Agent>
        </dc:creator>
      </cc:Work>
    </rdf:RDF>
  </metadata>
  <g
     inkscape:label="Taso 1"
     inkscape:groupmode="layer"
     id="layer1">
    <path
       sodipodi:nodetypes="cccccc"
       id="path3764"
       d="m 775.49265,734.93423 0,-122.08365 56.4275,-56.42748 460.33455,0 157.9969,173.99693 -674.75895,4.5142 z"
       style="fill:#d2e4e5;fill-opacity:1;stroke:none" />
    <path
       id="path3770"
       d="m 805.61835,734.78332 171.87505,-1.21875 123.7187,-177.15625 -170.99996,0 -124.59379,178.375 z"
       style="color:#000000;fill:#e4eeee;fill-opacity:1;fill-rule:nonzero;stroke:none;stroke-width:11.69999981;marker:none;visibility:visible;display:inline;overflow:visible;enable-background:accumulate" />
    <g
       style="font-size:144px;font-style:normal;font-variant:normal;font-weight:bold;font-stretch:normal;line-height:125%;letter-spacing:0px;word-spacing:0px;fill:#000000;fill-opacity:1;stroke:none;font-family:Aharoni;-inkscape-font-specification:Aharoni Bold"
       id="text3766">
      <path
         d="m 840.34131,692.38409 -24.96094,0 0,-95.97656 24.96094,0 0,95.97656"
         style=""
         id="path4020" />
      <path
         d="m 927.17725,660.60284 c -8e-5,16.21877 -7.12507,26.78907 -21.375,31.71094 -4.9688,1.73438 -10.31255,2.60156 -16.03125,2.60156 -12.00003,0 -23.13283,-3.63281 -33.39844,-10.89843 l 10.6875,-20.10938 c 7.49997,6.75002 14.8359,10.12502 22.00781,10.125 3.23433,2e-5 5.97652,-0.74998 8.22656,-2.25 2.62495,-1.68748 3.93745,-4.0781 3.9375,-7.17187 -5e-5,-2.81247 -1.45317,-5.15622 -4.35937,-7.03125 -2.1563,-1.40622 -5.7891,-2.8359 -10.89844,-4.28907 -6.18753,-1.82808 -10.07815,-3.0937 -11.67187,-3.79687 -2.53128,-1.07808 -4.68752,-2.34371 -6.46875,-3.79688 -5.10939,-4.21869 -7.66408,-10.59369 -7.66407,-19.125 -1e-5,-8.90617 2.64843,-16.28898 7.94532,-22.14843 6.18747,-6.89053 14.43746,-10.33584 24.75,-10.33594 10.35932,10e-5 20.50775,2.60166 30.44531,7.80469 l -9.98438,19.40625 c -5.43755,-4.21868 -10.92192,-6.32805 -16.45312,-6.32813 -2.67192,8e-5 -5.06254,0.67977 -7.17188,2.03906 -2.39066,1.54695 -3.58597,3.60945 -3.58593,6.1875 -4e-5,2.53132 1.57027,4.71101 4.71093,6.53907 1.40621,0.84381 5.62496,2.29693 12.65625,4.35937 8.81244,2.57818 15.09369,6.23443 18.84375,10.96875 3.2343,4.0313 4.85149,9.21098 4.85157,15.53906"
         style=""
         id="path4022" />
      <path
         d="m 1037.7085,617.29034 -30.0234,0 0,16.24219 27.3515,0 0,20.88281 -27.3515,0 0,37.96875 -24.96098,0 0,-95.97656 54.98438,0 0,20.88281"
         style=""
         id="path4024" />
      <path
         d="m 1136.4976,651.74347 c -10e-5,5.76566 -0.4689,10.68753 -1.4063,14.76562 -1.4532,6.32815 -4.922,12.09377 -10.4062,17.29688 -7.7814,7.35938 -18.1876,11.03906 -31.2188,11.03906 -13.2657,0 -23.625,-3.75 -31.0781,-11.25 -3.9375,-3.93749 -6.6328,-8.88279 -8.086,-14.83594 -1.0312,-4.21872 -1.5468,-9.89059 -1.5468,-17.01562 l 0,-55.33594 24.9609,0 0,51.96094 c 0,4.17191 0.07,7.2891 0.2109,9.35156 0.4688,6.51565 3.4453,11.06253 8.9297,13.64063 2.25,1.07814 4.7344,1.6172 7.4532,1.61718 6.0937,2e-5 10.6874,-2.13279 13.7812,-6.39843 2.2968,-3.1406 3.4453,-9.21091 3.4453,-18.21094 l 0,-51.96094 24.961,0 0,55.33594"
         style=""
         id="path4026" />
      <path
         d="m 1252.6538,692.38409 -24.9609,0 -45.9141,-58.78125 0,58.78125 -24.9609,0 0,-95.97656 24.9609,0 45.9141,58.71094 0,-58.71094 24.9609,0 0,95.97656"
         style=""
         id="path4028" />
    </g>
    <path
       id="path3774"
       d="m 775.52465,740.78332 674.78125,-4.5 c 2.2413,-0.02 4.4089,-1.45113 5.3076,-3.50445 0.8987,-2.05333 0.4796,-4.61669 -1.0264,-6.2768 l -158,-174 c -1.092,-1.21374 -2.711,-1.93591 -4.3437,-1.9375 l -460.31255,0 c -1.53879,-0.004 -3.06947,0.6293 -4.1562,1.71875 l -56.4063,56.4375 c -1.08207,1.0794 -1.71423,2.59661 -1.7187,4.125 l 0,122.09375 c 0.004,3.06924 2.80579,5.85656 5.875,5.84375 z m 5.8125,-11.71875 0,-113.78125 53,-53 455.34375,0 147.4375,162.375 -655.78125,4.40625 z"
       style="font-size:medium;font-style:normal;font-variant:normal;font-weight:normal;font-stretch:normal;text-indent:0;text-align:start;text-decoration:none;line-height:normal;letter-spacing:normal;word-spacing:normal;text-transform:none;direction:ltr;block-progression:tb;writing-mode:lr-tb;text-anchor:start;color:#000000;fill:#181834;fill-opacity:1;fill-rule:nonzero;stroke:none;stroke-width:11.69999981;marker:none;visibility:visible;display:inline;overflow:visible;enable-background:accumulate;font-family:Bitstream Vera Sans;-inkscape-font-specification:Bitstream Vera Sans"
       sodipodi:nodetypes="ccsccccccccccccccc" />
    <path
       id="path3776"
       d="m 801.52465,740.65832 171.84374,-1.21875 8.21871,-11.71875 -171.87495,1.1875 -8.1875,11.75 z m 295.56245,-178.375 8.1875,-11.71875 -170.96871,0 -8.1875,11.71875 170.96871,0 z"
       style="color:#000000;fill:#4d4a66;fill-opacity:1;fill-rule:nonzero;stroke:none;stroke-width:11.69999981;marker:none;visibility:visible;display:inline;overflow:visible;enable-background:accumulate" />
    <g
       id="g3778"
       transform="matrix(-1,0,0,-1,1336.9392,788.47966)">
      <path
         sodipodi:type="arc"
         style="color:#000000;fill:#df9137;fill-opacity:1;fill-rule:nonzero;stroke:none;stroke-width:10;marker:none;visibility:visible;display:inline;overflow:visible;enable-background:accumulate"
         id="path3780"
         sodipodi:cx="-4.8535585"
         sodipodi:cy="147.28009"
         sodipodi:rx="8.8981905"
         sodipodi:ry="8.8981905"
         d="m 4.044632,147.28009 c 0,4.91434 -3.98385563,8.89819 -8.8981905,8.89819 -4.914335,0 -8.8981905,-3.98385 -8.8981905,-8.89819 0,-4.91433 3.9838555,-8.89819 8.8981905,-8.89819 4.91433487,0 8.8981905,3.98386 8.8981905,8.89819 z" />
      <path
         sodipodi:type="star"
         style="color:#000000;fill:#a55a33;fill-opacity:1;fill-rule:nonzero;stroke:none;stroke-width:10;marker:none;visibility:visible;display:inline;overflow:visible;enable-background:accumulate"
         id="path3782"
         sodipodi:sides="6"
         sodipodi:cx="-4.3265491"
         sodipodi:cy="148.44427"
         sodipodi:r1="6.3753138"
         sodipodi:r2="3.6753635"
         sodipodi:arg1="0.78539816"
         sodipodi:arg2="1.3089969"
         inkscape:flatsided="false"
         inkscape:rounded="0.35"
         inkscape:randomized="0"
         d="m 0.18147855,152.9523 c -0.91162089,0.91162 -2.31147605,-1.29157 -3.55677335,-0.9579 -1.2452974,0.33368 -1.3560094,2.94163 -2.6013069,2.60796 -1.2452973,-0.33368 -0.037201,-2.64759 -0.9488217,-3.55921 -0.911621,-0.91162 -3.2255296,0.29647 -3.5592056,-0.94882 -0.333677,-1.2453 2.2742749,-1.35601 2.6079513,-2.60131 0.3336765,-1.2453 -1.8695199,-2.64515 -0.957899,-3.55677 0.9116209,-0.91162 2.3114761,1.29157 3.5567734,0.9579 1.2452974,-0.33368 1.3560094,-2.94163 2.6013068,-2.60796 1.2452974,0.33368 0.037201,2.64759 0.9488218,3.55921 0.91162101,0.91162 3.2255294,-0.29648 3.5592059,0.94882 0.3336764,1.2453 -2.27427524,1.35601 -2.60795165,2.60131 -0.33367645,1.2453 1.86951995,2.64515 0.957899,3.55677 z"
         transform="translate(-0.52700949,-1.1641846)" />
    </g>
    <g
       transform="matrix(-1,0,0,-1,1401.1662,855.58229)"
       id="g3784">
      <path
         d="m 4.044632,147.28009 c 0,4.91434 -3.98385563,8.89819 -8.8981905,8.89819 -4.914335,0 -8.8981905,-3.98385 -8.8981905,-8.89819 0,-4.91433 3.9838555,-8.89819 8.8981905,-8.89819 4.91433487,0 8.8981905,3.98386 8.8981905,8.89819 z"
         sodipodi:ry="8.8981905"
         sodipodi:rx="8.8981905"
         sodipodi:cy="147.28009"
         sodipodi:cx="-4.8535585"
         id="path3786"
         style="color:#000000;fill:#df9137;fill-opacity:1;fill-rule:nonzero;stroke:none;stroke-width:10;marker:none;visibility:visible;display:inline;overflow:visible;enable-background:accumulate"
         sodipodi:type="arc" />
      <path
         transform="translate(-0.52700949,-1.1641846)"
         d="m 0.18147855,152.9523 c -0.91162089,0.91162 -2.31147605,-1.29157 -3.55677335,-0.9579 -1.2452974,0.33368 -1.3560094,2.94163 -2.6013069,2.60796 -1.2452973,-0.33368 -0.037201,-2.64759 -0.9488217,-3.55921 -0.911621,-0.91162 -3.2255296,0.29647 -3.5592056,-0.94882 -0.333677,-1.2453 2.2742749,-1.35601 2.6079513,-2.60131 0.3336765,-1.2453 -1.8695199,-2.64515 -0.957899,-3.55677 0.9116209,-0.91162 2.3114761,1.29157 3.5567734,0.9579 1.2452974,-0.33368 1.3560094,-2.94163 2.6013068,-2.60796 1.2452974,0.33368 0.037201,2.64759 0.9488218,3.55921 0.91162101,0.91162 3.2255294,-0.29648 3.5592059,0.94882 0.3336764,1.2453 -2.27427524,1.35601 -2.60795165,2.60131 -0.33367645,1.2453 1.86951995,2.64515 0.957899,3.55677 z"
         inkscape:randomized="0"
         inkscape:rounded="0.35"
         inkscape:flatsided="false"
         sodipodi:arg2="1.3089969"
         sodipodi:arg1="0.78539816"
         sodipodi:r2="3.6753635"
         sodipodi:r1="6.3753138"
         sodipodi:cy="148.44427"
         sodipodi:cx="-4.3265491"
         sodipodi:sides="6"
         id="path3788"
         style="color:#000000;fill:#a55a33;fill-opacity:1;fill-rule:nonzero;stroke:none;stroke-width:10;marker:none;visibility:visible;display:inline;overflow:visible;enable-background:accumulate"
         sodipodi:type="star" />
    </g>
    <g
       id="g3790"
       transform="matrix(-1,0,0,-1,789.16625,855.58229)">
      <path
         sodipodi:type="arc"
         style="color:#000000;fill:#df9137;fill-opacity:1;fill-rule:nonzero;stroke:none;stroke-width:10;marker:none;visibility:visible;display:inline;overflow:visible;enable-background:accumulate"
         id="path3792"
         sodipodi:cx="-4.8535585"
         sodipodi:cy="147.28009"
         sodipodi:rx="8.8981905"
         sodipodi:ry="8.8981905"
         d="m 4.044632,147.28009 c 0,4.91434 -3.98385563,8.89819 -8.8981905,8.89819 -4.914335,0 -8.8981905,-3.98385 -8.8981905,-8.89819 0,-4.91433 3.9838555,-8.89819 8.8981905,-8.89819 4.91433487,0 8.8981905,3.98386 8.8981905,8.89819 z" />
      <path
         sodipodi:type="star"
         style="color:#000000;fill:#a55a33;fill-opacity:1;fill-rule:nonzero;stroke:none;stroke-width:10;marker:none;visibility:visible;display:inline;overflow:visible;enable-background:accumulate"
         id="path3794"
         sodipodi:sides="6"
         sodipodi:cx="-4.3265491"
         sodipodi:cy="148.44427"
         sodipodi:r1="6.3753138"
         sodipodi:r2="3.6753635"
         sodipodi:arg1="0.78539816"
         sodipodi:arg2="1.3089969"
         inkscape:flatsided="false"
         inkscape:rounded="0.35"
         inkscape:randomized="0"
         d="m 0.18147855,152.9523 c -0.91162089,0.91162 -2.31147605,-1.29157 -3.55677335,-0.9579 -1.2452974,0.33368 -1.3560094,2.94163 -2.6013069,2.60796 -1.2452973,-0.33368 -0.037201,-2.64759 -0.9488217,-3.55921 -0.911621,-0.91162 -3.2255296,0.29647 -3.5592056,-0.94882 -0.333677,-1.2453 2.2742749,-1.35601 2.6079513,-2.60131 0.3336765,-1.2453 -1.8695199,-2.64515 -0.957899,-3.55677 0.9116209,-0.91162 2.3114761,1.29157 3.5567734,0.9579 1.2452974,-0.33368 1.3560094,-2.94163 2.6013068,-2.60796 1.2452974,0.33368 0.037201,2.64759 0.9488218,3.55921 0.91162101,0.91162 3.2255294,-0.29648 3.5592059,0.94882 0.3336764,1.2453 -2.27427524,1.35601 -2.60795165,2.60131 -0.33367645,1.2453 1.86951995,2.64515 0.957899,3.55677 z"
         transform="translate(-0.52700949,-1.1641846)" />
    </g>
    <g
       transform="matrix(-1,0,0,-1,789.16625,771.58229)"
       id="g3796">
      <path
         d="m 4.044632,147.28009 c 0,4.91434 -3.98385563,8.89819 -8.8981905,8.89819 -4.914335,0 -8.8981905,-3.98385 -8.8981905,-8.89819 0,-4.91433 3.9838555,-8.89819 8.8981905,-8.89819 4.91433487,0 8.8981905,3.98386 8.8981905,8.89819 z"
         sodipodi:ry="8.8981905"
         sodipodi:rx="8.8981905"
         sodipodi:cy="147.28009"
         sodipodi:cx="-4.8535585"
         id="path3798"
         style="color:#000000;fill:#df9137;fill-opacity:1;fill-rule:nonzero;stroke:none;stroke-width:10;marker:none;visibility:visible;display:inline;overflow:visible;enable-background:accumulate"
         sodipodi:type="arc" />
      <path
         transform="translate(-0.52700949,-1.1641846)"
         d="m 0.18147855,152.9523 c -0.91162089,0.91162 -2.31147605,-1.29157 -3.55677335,-0.9579 -1.2452974,0.33368 -1.3560094,2.94163 -2.6013069,2.60796 -1.2452973,-0.33368 -0.037201,-2.64759 -0.9488217,-3.55921 -0.911621,-0.91162 -3.2255296,0.29647 -3.5592056,-0.94882 -0.333677,-1.2453 2.2742749,-1.35601 2.6079513,-2.60131 0.3336765,-1.2453 -1.8695199,-2.64515 -0.957899,-3.55677 0.9116209,-0.91162 2.3114761,1.29157 3.5567734,0.9579 1.2452974,-0.33368 1.3560094,-2.94163 2.6013068,-2.60796 1.2452974,0.33368 0.037201,2.64759 0.9488218,3.55921 0.91162101,0.91162 3.2255294,-0.29648 3.5592059,0.94882 0.3336764,1.2453 -2.27427524,1.35601 -2.60795165,2.60131 -0.33367645,1.2453 1.86951995,2.64515 0.957899,3.55677 z"
         inkscape:randomized="0"
         inkscape:rounded="0.35"
         inkscape:flatsided="false"
         sodipodi:arg2="1.3089969"
         sodipodi:arg1="0.78539816"
         sodipodi:r2="3.6753635"
         sodipodi:r1="6.3753138"
         sodipodi:cy="148.44427"
         sodipodi:cx="-4.3265491"
         sodipodi:sides="6"
         id="path3800"
         style="color:#000000;fill:#a55a33;fill-opacity:1;fill-rule:nonzero;stroke:none;stroke-width:10;marker:none;visibility:visible;display:inline;overflow:visible;enable-background:accumulate"
         sodipodi:type="star" />
    </g>
    <g
       id="g3802"
       transform="matrix(-1,0,0,-1,840.71215,721.37707)">
      <path
         sodipodi:type="arc"
         style="color:#000000;fill:#df9137;fill-opacity:1;fill-rule:nonzero;stroke:none;stroke-width:10;marker:none;visibility:visible;display:inline;overflow:visible;enable-background:accumulate"
         id="path3804"
         sodipodi:cx="-4.8535585"
         sodipodi:cy="147.28009"
         sodipodi:rx="8.8981905"
         sodipodi:ry="8.8981905"
         d="m 4.044632,147.28009 c 0,4.91434 -3.98385563,8.89819 -8.8981905,8.89819 -4.914335,0 -8.8981905,-3.98385 -8.8981905,-8.89819 0,-4.91433 3.9838555,-8.89819 8.8981905,-8.89819 4.91433487,0 8.8981905,3.98386 8.8981905,8.89819 z" />
      <path
         sodipodi:type="star"
         style="color:#000000;fill:#a55a33;fill-opacity:1;fill-rule:nonzero;stroke:none;stroke-width:10;marker:none;visibility:visible;display:inline;overflow:visible;enable-background:accumulate"
         id="path3806"
         sodipodi:sides="6"
         sodipodi:cx="-4.3265491"
         sodipodi:cy="148.44427"
         sodipodi:r1="6.3753138"
         sodipodi:r2="3.6753635"
         sodipodi:arg1="0.78539816"
         sodipodi:arg2="1.3089969"
         inkscape:flatsided="false"
         inkscape:rounded="0.35"
         inkscape:randomized="0"
         d="m 0.18147855,152.9523 c -0.91162089,0.91162 -2.31147605,-1.29157 -3.55677335,-0.9579 -1.2452974,0.33368 -1.3560094,2.94163 -2.6013069,2.60796 -1.2452973,-0.33368 -0.037201,-2.64759 -0.9488217,-3.55921 -0.911621,-0.91162 -3.2255296,0.29647 -3.5592056,-0.94882 -0.333677,-1.2453 2.2742749,-1.35601 2.6079513,-2.60131 0.3336765,-1.2453 -1.8695199,-2.64515 -0.957899,-3.55677 0.9116209,-0.91162 2.3114761,1.29157 3.5567734,0.9579 1.2452974,-0.33368 1.3560094,-2.94163 2.6013068,-2.60796 1.2452974,0.33368 0.037201,2.64759 0.9488218,3.55921 0.91162101,0.91162 3.2255294,-0.29648 3.5592059,0.94882 0.3336764,1.2453 -2.27427524,1.35601 -2.60795165,2.60131 -0.33367645,1.2453 1.86951995,2.64515 0.957899,3.55677 z"
         transform="translate(-0.52700949,-1.1641846)" />
    </g>
    <g
       id="g3808"
       transform="matrix(-1,0,0,-1,948.71218,721.37707)">
      <path
         sodipodi:type="arc"
         style="color:#000000;fill:#df9137;fill-opacity:1;fill-rule:nonzero;stroke:none;stroke-width:10;marker:none;visibility:visible;display:inline;overflow:visible;enable-background:accumulate"
         id="path3810"
         sodipodi:cx="-4.8535585"
         sodipodi:cy="147.28009"
         sodipodi:rx="8.8981905"
         sodipodi:ry="8.8981905"
         d="m 4.044632,147.28009 c 0,4.91434 -3.98385563,8.89819 -8.8981905,8.89819 -4.914335,0 -8.8981905,-3.98385 -8.8981905,-8.89819 0,-4.91433 3.9838555,-8.89819 8.8981905,-8.89819 4.91433487,0 8.8981905,3.98386 8.8981905,8.89819 z" />
      <path
         sodipodi:type="star"
         style="color:#000000;fill:#a55a33;fill-opacity:1;fill-rule:nonzero;stroke:none;stroke-width:10;marker:none;visibility:visible;display:inline;overflow:visible;enable-background:accumulate"
         id="path3812"
         sodipodi:sides="6"
         sodipodi:cx="-4.3265491"
         sodipodi:cy="148.44427"
         sodipodi:r1="6.3753138"
         sodipodi:r2="3.6753635"
         sodipodi:arg1="0.78539816"
         sodipodi:arg2="1.3089969"
         inkscape:flatsided="false"
         inkscape:rounded="0.35"
         inkscape:randomized="0"
         d="m 0.18147855,152.9523 c -0.91162089,0.91162 -2.31147605,-1.29157 -3.55677335,-0.9579 -1.2452974,0.33368 -1.3560094,2.94163 -2.6013069,2.60796 -1.2452973,-0.33368 -0.037201,-2.64759 -0.9488217,-3.55921 -0.911621,-0.91162 -3.2255296,0.29647 -3.5592056,-0.94882 -0.333677,-1.2453 2.2742749,-1.35601 2.6079513,-2.60131 0.3336765,-1.2453 -1.8695199,-2.64515 -0.957899,-3.55677 0.9116209,-0.91162 2.3114761,1.29157 3.5567734,0.9579 1.2452974,-0.33368 1.3560094,-2.94163 2.6013068,-2.60796 1.2452974,0.33368 0.037201,2.64759 0.9488218,3.55921 0.91162101,0.91162 3.2255294,-0.29648 3.5592059,0.94882 0.3336764,1.2453 -2.27427524,1.35601 -2.60795165,2.60131 -0.33367645,1.2453 1.86951995,2.64515 0.957899,3.55677 z"
         transform="translate(-0.52700949,-1.1641846)" />
    </g>
    <g
       transform="matrix(-1,0,0,-1,1056.7121,721.37707)"
       id="g3814">
      <path
         d="m 4.044632,147.28009 c 0,4.91434 -3.98385563,8.89819 -8.8981905,8.89819 -4.914335,0 -8.8981905,-3.98385 -8.8981905,-8.89819 0,-4.91433 3.9838555,-8.89819 8.8981905,-8.89819 4.91433487,0 8.8981905,3.98386 8.8981905,8.89819 z"
         sodipodi:ry="8.8981905"
         sodipodi:rx="8.8981905"
         sodipodi:cy="147.28009"
         sodipodi:cx="-4.8535585"
         id="path3816"
         style="color:#000000;fill:#df9137;fill-opacity:1;fill-rule:nonzero;stroke:none;stroke-width:10;marker:none;visibility:visible;display:inline;overflow:visible;enable-background:accumulate"
         sodipodi:type="arc" />
      <path
         transform="translate(-0.52700949,-1.1641846)"
         d="m 0.18147855,152.9523 c -0.91162089,0.91162 -2.31147605,-1.29157 -3.55677335,-0.9579 -1.2452974,0.33368 -1.3560094,2.94163 -2.6013069,2.60796 -1.2452973,-0.33368 -0.037201,-2.64759 -0.9488217,-3.55921 -0.911621,-0.91162 -3.2255296,0.29647 -3.5592056,-0.94882 -0.333677,-1.2453 2.2742749,-1.35601 2.6079513,-2.60131 0.3336765,-1.2453 -1.8695199,-2.64515 -0.957899,-3.55677 0.9116209,-0.91162 2.3114761,1.29157 3.5567734,0.9579 1.2452974,-0.33368 1.3560094,-2.94163 2.6013068,-2.60796 1.2452974,0.33368 0.037201,2.64759 0.9488218,3.55921 0.91162101,0.91162 3.2255294,-0.29648 3.5592059,0.94882 0.3336764,1.2453 -2.27427524,1.35601 -2.60795165,2.60131 -0.33367645,1.2453 1.86951995,2.64515 0.957899,3.55677 z"
         inkscape:randomized="0"
         inkscape:rounded="0.35"
         inkscape:flatsided="false"
         sodipodi:arg2="1.3089969"
         sodipodi:arg1="0.78539816"
         sodipodi:r2="3.6753635"
         sodipodi:r1="6.3753138"
         sodipodi:cy="148.44427"
         sodipodi:cx="-4.3265491"
         sodipodi:sides="6"
         id="path3818"
         style="color:#000000;fill:#a55a33;fill-opacity:1;fill-rule:nonzero;stroke:none;stroke-width:10;marker:none;visibility:visible;display:inline;overflow:visible;enable-background:accumulate"
         sodipodi:type="star" />
    </g>
    <g
       id="g3820"
       transform="matrix(-1,0,0,-1,1164.7121,721.37707)">
      <path
         sodipodi:type="arc"
         style="color:#000000;fill:#df9137;fill-opacity:1;fill-rule:nonzero;stroke:none;stroke-width:10;marker:none;visibility:visible;display:inline;overflow:visible;enable-background:accumulate"
         id="path3822"
         sodipodi:cx="-4.8535585"
         sodipodi:cy="147.28009"
         sodipodi:rx="8.8981905"
         sodipodi:ry="8.8981905"
         d="m 4.044632,147.28009 c 0,4.91434 -3.98385563,8.89819 -8.8981905,8.89819 -4.914335,0 -8.8981905,-3.98385 -8.8981905,-8.89819 0,-4.91433 3.9838555,-8.89819 8.8981905,-8.89819 4.91433487,0 8.8981905,3.98386 8.8981905,8.89819 z" />
      <path
         sodipodi:type="star"
         style="color:#000000;fill:#a55a33;fill-opacity:1;fill-rule:nonzero;stroke:none;stroke-width:10;marker:none;visibility:visible;display:inline;overflow:visible;enable-background:accumulate"
         id="path3824"
         sodipodi:sides="6"
         sodipodi:cx="-4.3265491"
         sodipodi:cy="148.44427"
         sodipodi:r1="6.3753138"
         sodipodi:r2="3.6753635"
         sodipodi:arg1="0.78539816"
         sodipodi:arg2="1.3089969"
         inkscape:flatsided="false"
         inkscape:rounded="0.35"
         inkscape:randomized="0"
         d="m 0.18147855,152.9523 c -0.91162089,0.91162 -2.31147605,-1.29157 -3.55677335,-0.9579 -1.2452974,0.33368 -1.3560094,2.94163 -2.6013069,2.60796 -1.2452973,-0.33368 -0.037201,-2.64759 -0.9488217,-3.55921 -0.911621,-0.91162 -3.2255296,0.29647 -3.5592056,-0.94882 -0.333677,-1.2453 2.2742749,-1.35601 2.6079513,-2.60131 0.3336765,-1.2453 -1.8695199,-2.64515 -0.957899,-3.55677 0.9116209,-0.91162 2.3114761,1.29157 3.5567734,0.9579 1.2452974,-0.33368 1.3560094,-2.94163 2.6013068,-2.60796 1.2452974,0.33368 0.037201,2.64759 0.9488218,3.55921 0.91162101,0.91162 3.2255294,-0.29648 3.5592059,0.94882 0.3336764,1.2453 -2.27427524,1.35601 -2.60795165,2.60131 -0.33367645,1.2453 1.86951995,2.64515 0.957899,3.55677 z"
         transform="translate(-0.52700949,-1.1641846)" />
    </g>
    <g
       transform="matrix(-1,0,0,-1,1272.7121,721.37707)"
       id="g3826">
      <path
         sodipodi:type="arc"
         style="color:#000000;fill:#df9137;fill-opacity:1;fill-rule:nonzero;stroke:none;stroke-width:10;marker:none;visibility:visible;display:inline;overflow:visible;enable-background:accumulate"
         id="path3828"
         sodipodi:cx="-4.8535585"
         sodipodi:cy="147.28009"
         sodipodi:rx="8.8981905"
         sodipodi:ry="8.8981905"
         d="m 4.044632,147.28009 c 0,4.91434 -3.98385563,8.89819 -8.8981905,8.89819 -4.914335,0 -8.8981905,-3.98385 -8.8981905,-8.89819 0,-4.91433 3.9838555,-8.89819 8.8981905,-8.89819 4.91433487,0 8.8981905,3.98386 8.8981905,8.89819 z" />
      <path
         sodipodi:type="star"
         style="color:#000000;fill:#a55a33;fill-opacity:1;fill-rule:nonzero;stroke:none;stroke-width:10;marker:none;visibility:visible;display:inline;overflow:visible;enable-background:accumulate"
         id="path3830"
         sodipodi:sides="6"
         sodipodi:cx="-4.3265491"
         sodipodi:cy="148.44427"
         sodipodi:r1="6.3753138"
         sodipodi:r2="3.6753635"
         sodipodi:arg1="0.78539816"
         sodipodi:arg2="1.3089969"
         inkscape:flatsided="false"
         inkscape:rounded="0.35"
         inkscape:randomized="0"
         d="m 0.18147855,152.9523 c -0.91162089,0.91162 -2.31147605,-1.29157 -3.55677335,-0.9579 -1.2452974,0.33368 -1.3560094,2.94163 -2.6013069,2.60796 -1.2452973,-0.33368 -0.037201,-2.64759 -0.9488217,-3.55921 -0.911621,-0.91162 -3.2255296,0.29647 -3.5592056,-0.94882 -0.333677,-1.2453 2.2742749,-1.35601 2.6079513,-2.60131 0.3336765,-1.2453 -1.8695199,-2.64515 -0.957899,-3.55677 0.9116209,-0.91162 2.3114761,1.29157 3.5567734,0.9579 1.2452974,-0.33368 1.3560094,-2.94163 2.6013068,-2.60796 1.2452974,0.33368 0.037201,2.64759 0.9488218,3.55921 0.91162101,0.91162 3.2255294,-0.29648 3.5592059,0.94882 0.3336764,1.2453 -2.27427524,1.35601 -2.60795165,2.60131 -0.33367645,1.2453 1.86951995,2.64515 0.957899,3.55677 z"
         transform="translate(-0.52700949,-1.1641846)" />
    </g>
    <path
       style="color:#000000;fill:#494854;fill-opacity:1;fill-rule:nonzero;stroke:none;stroke-width:11.69999981;marker:none;visibility:visible;display:inline;overflow:visible;enable-background:accumulate"
       d="M 903.28125 594.96875 L 867.875 645.71875 C 869.6498 647.16058 871.79694 648.42861 874.3125 649.5 C 875.90622 650.20317 879.78122 651.45317 885.96875 653.28125 C 891.07808 654.73441 894.71871 656.18754 896.875 657.59375 C 899.7812 659.46878 901.2187 661.81253 901.21875 664.625 C 901.2187 667.71877 899.9062 670.09377 897.28125 671.78125 C 895.03121 673.28127 892.29683 674.03127 889.0625 674.03125 C 881.89059 674.03127 874.56248 670.65627 867.0625 663.90625 L 856.375 684.03125 C 866.64061 691.29688 877.78122 694.90625 889.78125 694.90625 C 895.49996 694.90625 900.8437 694.04687 905.8125 692.3125 C 920.06243 687.39063 927.18742 676.81252 927.1875 660.59375 C 927.18742 654.26566 925.5468 649.09379 922.3125 645.0625 C 918.56243 640.32818 912.28119 636.67193 903.46875 634.09375 C 896.43745 632.03131 892.21871 630.59381 890.8125 629.75 C 887.67184 627.92194 886.12496 625.71882 886.125 623.1875 C 886.12496 620.60945 887.29684 618.54695 889.6875 617 C 891.79683 615.6407 894.20308 614.96883 896.875 614.96875 C 902.4062 614.96883 907.87494 617.09383 913.3125 621.3125 L 923.3125 601.90625 C 916.73012 598.4599 910.04867 596.13237 903.28125 594.96875 z M 982.71875 596.40625 L 982.71875 692.375 L 1006.25 692.375 L 1007.6875 690.3125 L 1007.6875 654.40625 L 1032.7812 654.40625 L 1035.0312 651.15625 L 1035.0312 633.53125 L 1007.6875 633.53125 L 1007.6875 617.28125 L 1037.7188 617.28125 L 1037.7188 596.40625 L 982.71875 596.40625 z M 1052.75 596.40625 L 1052.75 625.78125 L 1073.2812 596.40625 L 1052.75 596.40625 z M 840.34375 685.125 L 835.28125 692.375 L 840.34375 692.375 L 840.34375 685.125 z "
       id="rect3853" />
  </g>
</svg>
