<?xml version="1.0" encoding="UTF-8" standalone="no"?>
<!-- Created with Inkscape (http://www.inkscape.org/) -->

<svg
   xmlns:dc="http://purl.org/dc/elements/1.1/"
   xmlns:cc="http://creativecommons.org/ns#"
   xmlns:rdf="http://www.w3.org/1999/02/22-rdf-syntax-ns#"
   xmlns:svg="http://www.w3.org/2000/svg"
   xmlns="http://www.w3.org/2000/svg"
   xmlns:sodipodi="http://sodipodi.sourceforge.net/DTD/sodipodi-0.dtd"
   xmlns:inkscape="http://www.inkscape.org/namespaces/inkscape"
   width="1280"
   height="720"
   id="svg1901"
   sodipodi:version="0.32"
   inkscape:version="0.47 r22583"
   sodipodi:docname="ishuge.svg"
   version="1.1">
  <defs
     id="defs1903">
    <inkscape:perspective
       sodipodi:type="inkscape:persp3d"
       inkscape:vp_x="0 : 360 : 1"
       inkscape:vp_y="0 : 1000 : 0"
       inkscape:vp_z="1280 : 360 : 1"
       inkscape:persp3d-origin="640 : 240 : 1"
       id="perspective2818" />
  </defs>
  <sodipodi:namedview
     id="base"
     pagecolor="#ffffff"
     bordercolor="#666666"
     borderopacity="1.0"
     inkscape:pageopacity="0.0"
     inkscape:pageshadow="2"
     inkscape:zoom="0.35859208"
     inkscape:cx="798.95735"
     inkscape:cy="330.2273"
     inkscape:document-units="px"
     inkscape:current-layer="layer1"
     inkscape:window-width="1280"
     inkscape:window-height="949"
     inkscape:window-x="0"
     inkscape:window-y="25"
     showgrid="false"
     inkscape:window-maximized="1"
     borderlayer="true" />
  <metadata
     id="metadata1906">
    <rdf:RDF>
      <cc:Work
         rdf:about="">
        <dc:format>image/svg+xml</dc:format>
        <dc:type
           rdf:resource="http://purl.org/dc/dcmitype/StillImage" />
        <dc:title></dc:title>
        <dc:creator>
          <cc:Agent>
            <dc:title>Niko Kiirala</dc:title>
          </cc:Agent>
        </dc:creator>
      </cc:Work>
    </rdf:RDF>
  </metadata>
  <g
     inkscape:label="Taso 1"
     inkscape:groupmode="layer"
     id="layer1">
    <rect
       transform="matrix(-0.81987213,-0.57254668,0.57254668,-0.81987213,0,0)"
       y="-247.07803"
       x="-1129.5996"
       height="401.42618"
       width="140.20399"
       id="rect3762"
       style="color:#000000;fill:#494854;fill-opacity:1;fill-rule:nonzero;stroke:none;stroke-width:11.69999981;marker:none;visibility:visible;display:inline;overflow:visible;enable-background:accumulate" />
    <path
       sodipodi:nodetypes="cccccc"
       id="path3764"
       d="m 663.49265,734.93423 0,-122.08365 56.4275,-56.42748 564.33455,0 157.9969,173.99693 -778.75895,4.5142 z"
       style="fill:#d2e4e5;fill-opacity:1;stroke:none" />
    <path
       id="path3770"
       d="m 693.61835,734.78332 171.87505,-1.21875 123.7187,-177.15625 -170.99996,0 -124.59379,178.375 z"
       style="color:#000000;fill:#e4eeee;fill-opacity:1;fill-rule:nonzero;stroke:none;stroke-width:11.69999981;marker:none;visibility:visible;display:inline;overflow:visible;enable-background:accumulate" />
    <text
       sodipodi:linespacing="125%"
       id="text3766"
       y="692.38409"
       x="693.32568"
       style="font-size:144px;font-style:normal;font-variant:normal;font-weight:bold;font-stretch:normal;line-height:125%;letter-spacing:0px;word-spacing:0px;fill:#000000;fill-opacity:1;stroke:none;font-family:Aharoni;-inkscape-font-specification:Aharoni Bold"
       xml:space="preserve"><tspan
         y="692.38409"
         x="693.32568"
         id="tspan3768"
         sodipodi:role="line">IS HUGE</tspan></text>
    <path
       id="path3774"
       d="m 663.52465,740.78332 778.78125,-4.5 c 2.2413,-0.02 4.4089,-1.45113 5.3076,-3.50445 0.8987,-2.05333 0.4796,-4.61669 -1.0264,-6.2768 l -158,-174 c -1.092,-1.21374 -2.711,-1.93591 -4.3437,-1.9375 l -564.31255,0 c -1.53879,-0.004 -3.06947,0.6293 -4.1562,1.71875 l -56.4063,56.4375 c -1.08207,1.0794 -1.71423,2.59661 -1.7187,4.125 l 0,122.09375 c 0.004,3.06924 2.80579,5.85656 5.875,5.84375 z m 5.8125,-11.71875 0,-113.78125 53,-53 559.34375,0 147.4375,162.375 -759.78125,4.40625 z"
       style="font-size:medium;font-style:normal;font-variant:normal;font-weight:normal;font-stretch:normal;text-indent:0;text-align:start;text-decoration:none;line-height:normal;letter-spacing:normal;word-spacing:normal;text-transform:none;direction:ltr;block-progression:tb;writing-mode:lr-tb;text-anchor:start;color:#000000;fill:#181834;fill-opacity:1;fill-rule:nonzero;stroke:none;stroke-width:11.69999981;marker:none;visibility:visible;display:inline;overflow:visible;enable-background:accumulate;font-family:Bitstream Vera Sans;-inkscape-font-specification:Bitstream Vera Sans"
       sodipodi:nodetypes="ccsccccccccccccccc" />
    <path
       id="path3776"
       d="m 689.52465,740.65832 171.84374,-1.21875 8.21871,-11.71875 -171.87495,1.1875 -8.1875,11.75 z m 295.56245,-178.375 8.1875,-11.71875 -170.96871,0 -8.1875,11.71875 170.96871,0 z"
       style="color:#000000;fill:#4d4a66;fill-opacity:1;fill-rule:nonzero;stroke:none;stroke-width:11.69999981;marker:none;visibility:visible;display:inline;overflow:visible;enable-background:accumulate" />
    <g
       id="g3778"
       transform="matrix(-1,0,0,-1,1322.9392,788.47968)">
      <path
         sodipodi:type="arc"
         style="color:#000000;fill:#df9137;fill-opacity:1;fill-rule:nonzero;stroke:none;stroke-width:10;marker:none;visibility:visible;display:inline;overflow:visible;enable-background:accumulate"
         id="path3780"
         sodipodi:cx="-4.8535585"
         sodipodi:cy="147.28009"
         sodipodi:rx="8.8981905"
         sodipodi:ry="8.8981905"
         d="m 4.044632,147.28009 c 0,4.91434 -3.98385563,8.89819 -8.8981905,8.89819 -4.914335,0 -8.8981905,-3.98385 -8.8981905,-8.89819 0,-4.91433 3.9838555,-8.89819 8.8981905,-8.89819 4.91433487,0 8.8981905,3.98386 8.8981905,8.89819 z" />
      <path
         sodipodi:type="star"
         style="color:#000000;fill:#a55a33;fill-opacity:1;fill-rule:nonzero;stroke:none;stroke-width:10;marker:none;visibility:visible;display:inline;overflow:visible;enable-background:accumulate"
         id="path3782"
         sodipodi:sides="6"
         sodipodi:cx="-4.3265491"
         sodipodi:cy="148.44427"
         sodipodi:r1="6.3753138"
         sodipodi:r2="3.6753635"
         sodipodi:arg1="0.78539816"
         sodipodi:arg2="1.3089969"
         inkscape:flatsided="false"
         inkscape:rounded="0.35"
         inkscape:randomized="0"
         d="m 0.18147855,152.9523 c -0.91162089,0.91162 -2.31147605,-1.29157 -3.55677335,-0.9579 -1.2452974,0.33368 -1.3560094,2.94163 -2.6013069,2.60796 -1.2452973,-0.33368 -0.037201,-2.64759 -0.9488217,-3.55921 -0.911621,-0.91162 -3.2255296,0.29647 -3.5592056,-0.94882 -0.333677,-1.2453 2.2742749,-1.35601 2.6079513,-2.60131 0.3336765,-1.2453 -1.8695199,-2.64515 -0.957899,-3.55677 0.9116209,-0.91162 2.3114761,1.29157 3.5567734,0.9579 1.2452974,-0.33368 1.3560094,-2.94163 2.6013068,-2.60796 1.2452974,0.33368 0.037201,2.64759 0.9488218,3.55921 0.91162101,0.91162 3.2255294,-0.29648 3.5592059,0.94882 0.3336764,1.2453 -2.27427524,1.35601 -2.60795165,2.60131 -0.33367645,1.2453 1.86951995,2.64515 0.957899,3.55677 z"
         transform="translate(-0.52700949,-1.1641846)" />
    </g>
    <g
       transform="matrix(-1,0,0,-1,1381.1662,855.58229)"
       id="g3784">
      <path
         d="m 4.044632,147.28009 c 0,4.91434 -3.98385563,8.89819 -8.8981905,8.89819 -4.914335,0 -8.8981905,-3.98385 -8.8981905,-8.89819 0,-4.91433 3.9838555,-8.89819 8.8981905,-8.89819 4.91433487,0 8.8981905,3.98386 8.8981905,8.89819 z"
         sodipodi:ry="8.8981905"
         sodipodi:rx="8.8981905"
         sodipodi:cy="147.28009"
         sodipodi:cx="-4.8535585"
         id="path3786"
         style="color:#000000;fill:#df9137;fill-opacity:1;fill-rule:nonzero;stroke:none;stroke-width:10;marker:none;visibility:visible;display:inline;overflow:visible;enable-background:accumulate"
         sodipodi:type="arc" />
      <path
         transform="translate(-0.52700949,-1.1641846)"
         d="m 0.18147855,152.9523 c -0.91162089,0.91162 -2.31147605,-1.29157 -3.55677335,-0.9579 -1.2452974,0.33368 -1.3560094,2.94163 -2.6013069,2.60796 -1.2452973,-0.33368 -0.037201,-2.64759 -0.9488217,-3.55921 -0.911621,-0.91162 -3.2255296,0.29647 -3.5592056,-0.94882 -0.333677,-1.2453 2.2742749,-1.35601 2.6079513,-2.60131 0.3336765,-1.2453 -1.8695199,-2.64515 -0.957899,-3.55677 0.9116209,-0.91162 2.3114761,1.29157 3.5567734,0.9579 1.2452974,-0.33368 1.3560094,-2.94163 2.6013068,-2.60796 1.2452974,0.33368 0.037201,2.64759 0.9488218,3.55921 0.91162101,0.91162 3.2255294,-0.29648 3.5592059,0.94882 0.3336764,1.2453 -2.27427524,1.35601 -2.60795165,2.60131 -0.33367645,1.2453 1.86951995,2.64515 0.957899,3.55677 z"
         inkscape:randomized="0"
         inkscape:rounded="0.35"
         inkscape:flatsided="false"
         sodipodi:arg2="1.3089969"
         sodipodi:arg1="0.78539816"
         sodipodi:r2="3.6753635"
         sodipodi:r1="6.3753138"
         sodipodi:cy="148.44427"
         sodipodi:cx="-4.3265491"
         sodipodi:sides="6"
         id="path3788"
         style="color:#000000;fill:#a55a33;fill-opacity:1;fill-rule:nonzero;stroke:none;stroke-width:10;marker:none;visibility:visible;display:inline;overflow:visible;enable-background:accumulate"
         sodipodi:type="star" />
    </g>
    <g
       id="g3790"
       transform="matrix(-1,0,0,-1,677.16625,855.58229)">
      <path
         sodipodi:type="arc"
         style="color:#000000;fill:#df9137;fill-opacity:1;fill-rule:nonzero;stroke:none;stroke-width:10;marker:none;visibility:visible;display:inline;overflow:visible;enable-background:accumulate"
         id="path3792"
         sodipodi:cx="-4.8535585"
         sodipodi:cy="147.28009"
         sodipodi:rx="8.8981905"
         sodipodi:ry="8.8981905"
         d="m 4.044632,147.28009 c 0,4.91434 -3.98385563,8.89819 -8.8981905,8.89819 -4.914335,0 -8.8981905,-3.98385 -8.8981905,-8.89819 0,-4.91433 3.9838555,-8.89819 8.8981905,-8.89819 4.91433487,0 8.8981905,3.98386 8.8981905,8.89819 z" />
      <path
         sodipodi:type="star"
         style="color:#000000;fill:#a55a33;fill-opacity:1;fill-rule:nonzero;stroke:none;stroke-width:10;marker:none;visibility:visible;display:inline;overflow:visible;enable-background:accumulate"
         id="path3794"
         sodipodi:sides="6"
         sodipodi:cx="-4.3265491"
         sodipodi:cy="148.44427"
         sodipodi:r1="6.3753138"
         sodipodi:r2="3.6753635"
         sodipodi:arg1="0.78539816"
         sodipodi:arg2="1.3089969"
         inkscape:flatsided="false"
         inkscape:rounded="0.35"
         inkscape:randomized="0"
         d="m 0.18147855,152.9523 c -0.91162089,0.91162 -2.31147605,-1.29157 -3.55677335,-0.9579 -1.2452974,0.33368 -1.3560094,2.94163 -2.6013069,2.60796 -1.2452973,-0.33368 -0.037201,-2.64759 -0.9488217,-3.55921 -0.911621,-0.91162 -3.2255296,0.29647 -3.5592056,-0.94882 -0.333677,-1.2453 2.2742749,-1.35601 2.6079513,-2.60131 0.3336765,-1.2453 -1.8695199,-2.64515 -0.957899,-3.55677 0.9116209,-0.91162 2.3114761,1.29157 3.5567734,0.9579 1.2452974,-0.33368 1.3560094,-2.94163 2.6013068,-2.60796 1.2452974,0.33368 0.037201,2.64759 0.9488218,3.55921 0.91162101,0.91162 3.2255294,-0.29648 3.5592059,0.94882 0.3336764,1.2453 -2.27427524,1.35601 -2.60795165,2.60131 -0.33367645,1.2453 1.86951995,2.64515 0.957899,3.55677 z"
         transform="translate(-0.52700949,-1.1641846)" />
    </g>
    <g
       transform="matrix(-1,0,0,-1,677.16625,771.58229)"
       id="g3796">
      <path
         d="m 4.044632,147.28009 c 0,4.91434 -3.98385563,8.89819 -8.8981905,8.89819 -4.914335,0 -8.8981905,-3.98385 -8.8981905,-8.89819 0,-4.91433 3.9838555,-8.89819 8.8981905,-8.89819 4.91433487,0 8.8981905,3.98386 8.8981905,8.89819 z"
         sodipodi:ry="8.8981905"
         sodipodi:rx="8.8981905"
         sodipodi:cy="147.28009"
         sodipodi:cx="-4.8535585"
         id="path3798"
         style="color:#000000;fill:#df9137;fill-opacity:1;fill-rule:nonzero;stroke:none;stroke-width:10;marker:none;visibility:visible;display:inline;overflow:visible;enable-background:accumulate"
         sodipodi:type="arc" />
      <path
         transform="translate(-0.52700949,-1.1641846)"
         d="m 0.18147855,152.9523 c -0.91162089,0.91162 -2.31147605,-1.29157 -3.55677335,-0.9579 -1.2452974,0.33368 -1.3560094,2.94163 -2.6013069,2.60796 -1.2452973,-0.33368 -0.037201,-2.64759 -0.9488217,-3.55921 -0.911621,-0.91162 -3.2255296,0.29647 -3.5592056,-0.94882 -0.333677,-1.2453 2.2742749,-1.35601 2.6079513,-2.60131 0.3336765,-1.2453 -1.8695199,-2.64515 -0.957899,-3.55677 0.9116209,-0.91162 2.3114761,1.29157 3.5567734,0.9579 1.2452974,-0.33368 1.3560094,-2.94163 2.6013068,-2.60796 1.2452974,0.33368 0.037201,2.64759 0.9488218,3.55921 0.91162101,0.91162 3.2255294,-0.29648 3.5592059,0.94882 0.3336764,1.2453 -2.27427524,1.35601 -2.60795165,2.60131 -0.33367645,1.2453 1.86951995,2.64515 0.957899,3.55677 z"
         inkscape:randomized="0"
         inkscape:rounded="0.35"
         inkscape:flatsided="false"
         sodipodi:arg2="1.3089969"
         sodipodi:arg1="0.78539816"
         sodipodi:r2="3.6753635"
         sodipodi:r1="6.3753138"
         sodipodi:cy="148.44427"
         sodipodi:cx="-4.3265491"
         sodipodi:sides="6"
         id="path3800"
         style="color:#000000;fill:#a55a33;fill-opacity:1;fill-rule:nonzero;stroke:none;stroke-width:10;marker:none;visibility:visible;display:inline;overflow:visible;enable-background:accumulate"
         sodipodi:type="star" />
    </g>
    <g
       id="g3802"
       transform="matrix(-1,0,0,-1,728.71215,721.37707)">
      <path
         sodipodi:type="arc"
         style="color:#000000;fill:#df9137;fill-opacity:1;fill-rule:nonzero;stroke:none;stroke-width:10;marker:none;visibility:visible;display:inline;overflow:visible;enable-background:accumulate"
         id="path3804"
         sodipodi:cx="-4.8535585"
         sodipodi:cy="147.28009"
         sodipodi:rx="8.8981905"
         sodipodi:ry="8.8981905"
         d="m 4.044632,147.28009 c 0,4.91434 -3.98385563,8.89819 -8.8981905,8.89819 -4.914335,0 -8.8981905,-3.98385 -8.8981905,-8.89819 0,-4.91433 3.9838555,-8.89819 8.8981905,-8.89819 4.91433487,0 8.8981905,3.98386 8.8981905,8.89819 z" />
      <path
         sodipodi:type="star"
         style="color:#000000;fill:#a55a33;fill-opacity:1;fill-rule:nonzero;stroke:none;stroke-width:10;marker:none;visibility:visible;display:inline;overflow:visible;enable-background:accumulate"
         id="path3806"
         sodipodi:sides="6"
         sodipodi:cx="-4.3265491"
         sodipodi:cy="148.44427"
         sodipodi:r1="6.3753138"
         sodipodi:r2="3.6753635"
         sodipodi:arg1="0.78539816"
         sodipodi:arg2="1.3089969"
         inkscape:flatsided="false"
         inkscape:rounded="0.35"
         inkscape:randomized="0"
         d="m 0.18147855,152.9523 c -0.91162089,0.91162 -2.31147605,-1.29157 -3.55677335,-0.9579 -1.2452974,0.33368 -1.3560094,2.94163 -2.6013069,2.60796 -1.2452973,-0.33368 -0.037201,-2.64759 -0.9488217,-3.55921 -0.911621,-0.91162 -3.2255296,0.29647 -3.5592056,-0.94882 -0.333677,-1.2453 2.2742749,-1.35601 2.6079513,-2.60131 0.3336765,-1.2453 -1.8695199,-2.64515 -0.957899,-3.55677 0.9116209,-0.91162 2.3114761,1.29157 3.5567734,0.9579 1.2452974,-0.33368 1.3560094,-2.94163 2.6013068,-2.60796 1.2452974,0.33368 0.037201,2.64759 0.9488218,3.55921 0.91162101,0.91162 3.2255294,-0.29648 3.5592059,0.94882 0.3336764,1.2453 -2.27427524,1.35601 -2.60795165,2.60131 -0.33367645,1.2453 1.86951995,2.64515 0.957899,3.55677 z"
         transform="translate(-0.52700949,-1.1641846)" />
    </g>
    <g
       id="g3808"
       transform="matrix(-1,0,0,-1,835.91219,721.37707)">
      <path
         sodipodi:type="arc"
         style="color:#000000;fill:#df9137;fill-opacity:1;fill-rule:nonzero;stroke:none;stroke-width:10;marker:none;visibility:visible;display:inline;overflow:visible;enable-background:accumulate"
         id="path3810"
         sodipodi:cx="-4.8535585"
         sodipodi:cy="147.28009"
         sodipodi:rx="8.8981905"
         sodipodi:ry="8.8981905"
         d="m 4.044632,147.28009 c 0,4.91434 -3.98385563,8.89819 -8.8981905,8.89819 -4.914335,0 -8.8981905,-3.98385 -8.8981905,-8.89819 0,-4.91433 3.9838555,-8.89819 8.8981905,-8.89819 4.91433487,0 8.8981905,3.98386 8.8981905,8.89819 z" />
      <path
         sodipodi:type="star"
         style="color:#000000;fill:#a55a33;fill-opacity:1;fill-rule:nonzero;stroke:none;stroke-width:10;marker:none;visibility:visible;display:inline;overflow:visible;enable-background:accumulate"
         id="path3812"
         sodipodi:sides="6"
         sodipodi:cx="-4.3265491"
         sodipodi:cy="148.44427"
         sodipodi:r1="6.3753138"
         sodipodi:r2="3.6753635"
         sodipodi:arg1="0.78539816"
         sodipodi:arg2="1.3089969"
         inkscape:flatsided="false"
         inkscape:rounded="0.35"
         inkscape:randomized="0"
         d="m 0.18147855,152.9523 c -0.91162089,0.91162 -2.31147605,-1.29157 -3.55677335,-0.9579 -1.2452974,0.33368 -1.3560094,2.94163 -2.6013069,2.60796 -1.2452973,-0.33368 -0.037201,-2.64759 -0.9488217,-3.55921 -0.911621,-0.91162 -3.2255296,0.29647 -3.5592056,-0.94882 -0.333677,-1.2453 2.2742749,-1.35601 2.6079513,-2.60131 0.3336765,-1.2453 -1.8695199,-2.64515 -0.957899,-3.55677 0.9116209,-0.91162 2.3114761,1.29157 3.5567734,0.9579 1.2452974,-0.33368 1.3560094,-2.94163 2.6013068,-2.60796 1.2452974,0.33368 0.037201,2.64759 0.9488218,3.55921 0.91162101,0.91162 3.2255294,-0.29648 3.5592059,0.94882 0.3336764,1.2453 -2.27427524,1.35601 -2.60795165,2.60131 -0.33367645,1.2453 1.86951995,2.64515 0.957899,3.55677 z"
         transform="translate(-0.52700949,-1.1641846)" />
    </g>
    <g
       transform="matrix(-1,0,0,-1,943.11213,721.37707)"
       id="g3814">
      <path
         d="m 4.044632,147.28009 c 0,4.91434 -3.98385563,8.89819 -8.8981905,8.89819 -4.914335,0 -8.8981905,-3.98385 -8.8981905,-8.89819 0,-4.91433 3.9838555,-8.89819 8.8981905,-8.89819 4.91433487,0 8.8981905,3.98386 8.8981905,8.89819 z"
         sodipodi:ry="8.8981905"
         sodipodi:rx="8.8981905"
         sodipodi:cy="147.28009"
         sodipodi:cx="-4.8535585"
         id="path3816"
         style="color:#000000;fill:#df9137;fill-opacity:1;fill-rule:nonzero;stroke:none;stroke-width:10;marker:none;visibility:visible;display:inline;overflow:visible;enable-background:accumulate"
         sodipodi:type="arc" />
      <path
         transform="translate(-0.52700949,-1.1641846)"
         d="m 0.18147855,152.9523 c -0.91162089,0.91162 -2.31147605,-1.29157 -3.55677335,-0.9579 -1.2452974,0.33368 -1.3560094,2.94163 -2.6013069,2.60796 -1.2452973,-0.33368 -0.037201,-2.64759 -0.9488217,-3.55921 -0.911621,-0.91162 -3.2255296,0.29647 -3.5592056,-0.94882 -0.333677,-1.2453 2.2742749,-1.35601 2.6079513,-2.60131 0.3336765,-1.2453 -1.8695199,-2.64515 -0.957899,-3.55677 0.9116209,-0.91162 2.3114761,1.29157 3.5567734,0.9579 1.2452974,-0.33368 1.3560094,-2.94163 2.6013068,-2.60796 1.2452974,0.33368 0.037201,2.64759 0.9488218,3.55921 0.91162101,0.91162 3.2255294,-0.29648 3.5592059,0.94882 0.3336764,1.2453 -2.27427524,1.35601 -2.60795165,2.60131 -0.33367645,1.2453 1.86951995,2.64515 0.957899,3.55677 z"
         inkscape:randomized="0"
         inkscape:rounded="0.35"
         inkscape:flatsided="false"
         sodipodi:arg2="1.3089969"
         sodipodi:arg1="0.78539816"
         sodipodi:r2="3.6753635"
         sodipodi:r1="6.3753138"
         sodipodi:cy="148.44427"
         sodipodi:cx="-4.3265491"
         sodipodi:sides="6"
         id="path3818"
         style="color:#000000;fill:#a55a33;fill-opacity:1;fill-rule:nonzero;stroke:none;stroke-width:10;marker:none;visibility:visible;display:inline;overflow:visible;enable-background:accumulate"
         sodipodi:type="star" />
    </g>
    <g
       id="g3820"
       transform="matrix(-1,0,0,-1,1050.3122,721.37707)">
      <path
         sodipodi:type="arc"
         style="color:#000000;fill:#df9137;fill-opacity:1;fill-rule:nonzero;stroke:none;stroke-width:10;marker:none;visibility:visible;display:inline;overflow:visible;enable-background:accumulate"
         id="path3822"
         sodipodi:cx="-4.8535585"
         sodipodi:cy="147.28009"
         sodipodi:rx="8.8981905"
         sodipodi:ry="8.8981905"
         d="m 4.044632,147.28009 c 0,4.91434 -3.98385563,8.89819 -8.8981905,8.89819 -4.914335,0 -8.8981905,-3.98385 -8.8981905,-8.89819 0,-4.91433 3.9838555,-8.89819 8.8981905,-8.89819 4.91433487,0 8.8981905,3.98386 8.8981905,8.89819 z" />
      <path
         sodipodi:type="star"
         style="color:#000000;fill:#a55a33;fill-opacity:1;fill-rule:nonzero;stroke:none;stroke-width:10;marker:none;visibility:visible;display:inline;overflow:visible;enable-background:accumulate"
         id="path3824"
         sodipodi:sides="6"
         sodipodi:cx="-4.3265491"
         sodipodi:cy="148.44427"
         sodipodi:r1="6.3753138"
         sodipodi:r2="3.6753635"
         sodipodi:arg1="0.78539816"
         sodipodi:arg2="1.3089969"
         inkscape:flatsided="false"
         inkscape:rounded="0.35"
         inkscape:randomized="0"
         d="m 0.18147855,152.9523 c -0.91162089,0.91162 -2.31147605,-1.29157 -3.55677335,-0.9579 -1.2452974,0.33368 -1.3560094,2.94163 -2.6013069,2.60796 -1.2452973,-0.33368 -0.037201,-2.64759 -0.9488217,-3.55921 -0.911621,-0.91162 -3.2255296,0.29647 -3.5592056,-0.94882 -0.333677,-1.2453 2.2742749,-1.35601 2.6079513,-2.60131 0.3336765,-1.2453 -1.8695199,-2.64515 -0.957899,-3.55677 0.9116209,-0.91162 2.3114761,1.29157 3.5567734,0.9579 1.2452974,-0.33368 1.3560094,-2.94163 2.6013068,-2.60796 1.2452974,0.33368 0.037201,2.64759 0.9488218,3.55921 0.91162101,0.91162 3.2255294,-0.29648 3.5592059,0.94882 0.3336764,1.2453 -2.27427524,1.35601 -2.60795165,2.60131 -0.33367645,1.2453 1.86951995,2.64515 0.957899,3.55677 z"
         transform="translate(-0.52700949,-1.1641846)" />
    </g>
    <g
       transform="matrix(-1,0,0,-1,1157.5122,721.37707)"
       id="g3826">
      <path
         sodipodi:type="arc"
         style="color:#000000;fill:#df9137;fill-opacity:1;fill-rule:nonzero;stroke:none;stroke-width:10;marker:none;visibility:visible;display:inline;overflow:visible;enable-background:accumulate"
         id="path3828"
         sodipodi:cx="-4.8535585"
         sodipodi:cy="147.28009"
         sodipodi:rx="8.8981905"
         sodipodi:ry="8.8981905"
         d="m 4.044632,147.28009 c 0,4.91434 -3.98385563,8.89819 -8.8981905,8.89819 -4.914335,0 -8.8981905,-3.98385 -8.8981905,-8.89819 0,-4.91433 3.9838555,-8.89819 8.8981905,-8.89819 4.91433487,0 8.8981905,3.98386 8.8981905,8.89819 z" />
      <path
         sodipodi:type="star"
         style="color:#000000;fill:#a55a33;fill-opacity:1;fill-rule:nonzero;stroke:none;stroke-width:10;marker:none;visibility:visible;display:inline;overflow:visible;enable-background:accumulate"
         id="path3830"
         sodipodi:sides="6"
         sodipodi:cx="-4.3265491"
         sodipodi:cy="148.44427"
         sodipodi:r1="6.3753138"
         sodipodi:r2="3.6753635"
         sodipodi:arg1="0.78539816"
         sodipodi:arg2="1.3089969"
         inkscape:flatsided="false"
         inkscape:rounded="0.35"
         inkscape:randomized="0"
         d="m 0.18147855,152.9523 c -0.91162089,0.91162 -2.31147605,-1.29157 -3.55677335,-0.9579 -1.2452974,0.33368 -1.3560094,2.94163 -2.6013069,2.60796 -1.2452973,-0.33368 -0.037201,-2.64759 -0.9488217,-3.55921 -0.911621,-0.91162 -3.2255296,0.29647 -3.5592056,-0.94882 -0.333677,-1.2453 2.2742749,-1.35601 2.6079513,-2.60131 0.3336765,-1.2453 -1.8695199,-2.64515 -0.957899,-3.55677 0.9116209,-0.91162 2.3114761,1.29157 3.5567734,0.9579 1.2452974,-0.33368 1.3560094,-2.94163 2.6013068,-2.60796 1.2452974,0.33368 0.037201,2.64759 0.9488218,3.55921 0.91162101,0.91162 3.2255294,-0.29648 3.5592059,0.94882 0.3336764,1.2453 -2.27427524,1.35601 -2.60795165,2.60131 -0.33367645,1.2453 1.86951995,2.64515 0.957899,3.55677 z"
         transform="translate(-0.52700949,-1.1641846)" />
    </g>
    <g
       id="g3860"
       transform="matrix(-1,0,0,-1,1264.7121,721.37707)">
      <path
         d="m 4.044632,147.28009 c 0,4.91434 -3.98385563,8.89819 -8.8981905,8.89819 -4.914335,0 -8.8981905,-3.98385 -8.8981905,-8.89819 0,-4.91433 3.9838555,-8.89819 8.8981905,-8.89819 4.91433487,0 8.8981905,3.98386 8.8981905,8.89819 z"
         sodipodi:ry="8.8981905"
         sodipodi:rx="8.8981905"
         sodipodi:cy="147.28009"
         sodipodi:cx="-4.8535585"
         id="path3862"
         style="color:#000000;fill:#df9137;fill-opacity:1;fill-rule:nonzero;stroke:none;stroke-width:10;marker:none;visibility:visible;display:inline;overflow:visible;enable-background:accumulate"
         sodipodi:type="arc" />
      <path
         transform="translate(-0.52700949,-1.1641846)"
         d="m 0.18147855,152.9523 c -0.91162089,0.91162 -2.31147605,-1.29157 -3.55677335,-0.9579 -1.2452974,0.33368 -1.3560094,2.94163 -2.6013069,2.60796 -1.2452973,-0.33368 -0.037201,-2.64759 -0.9488217,-3.55921 -0.911621,-0.91162 -3.2255296,0.29647 -3.5592056,-0.94882 -0.333677,-1.2453 2.2742749,-1.35601 2.6079513,-2.60131 0.3336765,-1.2453 -1.8695199,-2.64515 -0.957899,-3.55677 0.9116209,-0.91162 2.3114761,1.29157 3.5567734,0.9579 1.2452974,-0.33368 1.3560094,-2.94163 2.6013068,-2.60796 1.2452974,0.33368 0.037201,2.64759 0.9488218,3.55921 0.91162101,0.91162 3.2255294,-0.29648 3.5592059,0.94882 0.3336764,1.2453 -2.27427524,1.35601 -2.60795165,2.60131 -0.33367645,1.2453 1.86951995,2.64515 0.957899,3.55677 z"
         inkscape:randomized="0"
         inkscape:rounded="0.35"
         inkscape:flatsided="false"
         sodipodi:arg2="1.3089969"
         sodipodi:arg1="0.78539816"
         sodipodi:r2="3.6753635"
         sodipodi:r1="6.3753138"
         sodipodi:cy="148.44427"
         sodipodi:cx="-4.3265491"
         sodipodi:sides="6"
         id="path3864"
         style="color:#000000;fill:#a55a33;fill-opacity:1;fill-rule:nonzero;stroke:none;stroke-width:10;marker:none;visibility:visible;display:inline;overflow:visible;enable-background:accumulate"
         sodipodi:type="star" />
    </g>
  </g>
</svg>
