<?xml version="1.0" encoding="UTF-8" standalone="no"?>
<!-- Created with Inkscape (http://www.inkscape.org/) -->

<svg
   xmlns:dc="http://purl.org/dc/elements/1.1/"
   xmlns:cc="http://creativecommons.org/ns#"
   xmlns:rdf="http://www.w3.org/1999/02/22-rdf-syntax-ns#"
   xmlns:svg="http://www.w3.org/2000/svg"
   xmlns="http://www.w3.org/2000/svg"
   xmlns:sodipodi="http://sodipodi.sourceforge.net/DTD/sodipodi-0.dtd"
   xmlns:inkscape="http://www.inkscape.org/namespaces/inkscape"
   width="1280"
   height="720"
   id="svg1901"
   sodipodi:version="0.32"
   inkscape:version="0.47 r22583"
   sodipodi:docname="omgponies.svg"
   version="1.1">
  <defs
     id="defs1903">
    <inkscape:perspective
       sodipodi:type="inkscape:persp3d"
       inkscape:vp_x="0 : 360 : 1"
       inkscape:vp_y="0 : 1000 : 0"
       inkscape:vp_z="1280 : 360 : 1"
       inkscape:persp3d-origin="640 : 240 : 1"
       id="perspective2818" />
    <inkscape:perspective
       id="perspective4038"
       inkscape:persp3d-origin="0.5 : 0.33333333 : 1"
       inkscape:vp_z="1 : 0.5 : 1"
       inkscape:vp_y="0 : 1000 : 0"
       inkscape:vp_x="0 : 0.5 : 1"
       sodipodi:type="inkscape:persp3d" />
  </defs>
  <sodipodi:namedview
     id="base"
     pagecolor="#ffffff"
     bordercolor="#666666"
     borderopacity="1.0"
     inkscape:pageopacity="0.0"
     inkscape:pageshadow="2"
     inkscape:zoom="1.0142516"
     inkscape:cx="504.59401"
     inkscape:cy="268.72149"
     inkscape:document-units="px"
     inkscape:current-layer="layer1"
     inkscape:window-width="1280"
     inkscape:window-height="949"
     inkscape:window-x="0"
     inkscape:window-y="25"
     showgrid="false"
     inkscape:window-maximized="1"
     borderlayer="true" />
  <metadata
     id="metadata1906">
    <rdf:RDF>
      <cc:Work
         rdf:about="">
        <dc:format>image/svg+xml</dc:format>
        <dc:type
           rdf:resource="http://purl.org/dc/dcmitype/StillImage" />
        <dc:title></dc:title>
        <dc:creator>
          <cc:Agent>
            <dc:title>Niko Kiirala</dc:title>
          </cc:Agent>
        </dc:creator>
      </cc:Work>
    </rdf:RDF>
  </metadata>
  <g
     inkscape:label="Taso 1"
     inkscape:groupmode="layer"
     id="layer1">
    <path
       sodipodi:nodetypes="cccccc"
       id="path3764"
       d="m 343.49265,734.93423 0,-122.08365 56.4275,-56.42748 884.33455,0 157.9969,173.99693 -1098.75895,4.5142 z"
       style="fill:#d2e4e5;fill-opacity:1;stroke:none" />
    <path
       id="path3770"
       d="m 373.61835,734.78332 171.87505,-1.21875 123.7187,-177.15625 -170.99996,0 -124.59379,178.375 z"
       style="color:#000000;fill:#e4eeee;fill-opacity:1;fill-rule:nonzero;stroke:none;stroke-width:11.69999981;marker:none;visibility:visible;display:inline;overflow:visible;enable-background:accumulate" />
    <g
       style="font-size:120px;font-style:normal;font-variant:normal;font-weight:bold;font-stretch:normal;line-height:125%;letter-spacing:0px;word-spacing:0px;fill:#000000;fill-opacity:1;stroke:none;font-family:Aharoni;-inkscape-font-specification:Aharoni Bold"
       id="text3766">
      <path
         d="m 394.30225,682.29034 c -2e-5,1.95313 -0.68362,3.61329 -2.05079,4.98047 -1.3672,1.36719 -3.02735,2.05078 -4.98046,2.05078 -2.03127,0 -3.75001,-0.68359 -5.15625,-2.05078 -1.3672,-1.36718 -2.05079,-3.02734 -2.05079,-4.98047 0,-1.95311 0.68359,-3.59374 2.05079,-4.92187 1.40624,-1.36718 3.12498,-2.05077 5.15625,-2.05078 1.95311,10e-6 3.61326,0.6836 4.98046,2.05078 1.36717,1.32813 2.05077,2.96876 2.05079,4.92187"
         style=""
         id="path4188" />
      <path
         d="m 421.021,682.29034 c -2e-5,1.95313 -0.68362,3.61329 -2.05079,4.98047 -1.3672,1.36719 -3.02735,2.05078 -4.98046,2.05078 -2.03127,0 -3.75001,-0.68359 -5.15625,-2.05078 -1.3672,-1.36718 -2.05079,-3.02734 -2.05079,-4.98047 0,-1.95311 0.68359,-3.59374 2.05079,-4.92187 1.40624,-1.36718 3.12498,-2.05077 5.15625,-2.05078 1.95311,10e-6 3.61326,0.6836 4.98046,2.05078 1.36717,1.32813 2.05077,2.96876 2.05079,4.92187"
         style=""
         id="path4190" />
      <path
         d="m 447.73975,682.29034 c -2e-5,1.95313 -0.68362,3.61329 -2.05079,4.98047 -1.3672,1.36719 -3.02735,2.05078 -4.98046,2.05078 -2.03127,0 -3.75001,-0.68359 -5.15625,-2.05078 -1.3672,-1.36718 -2.05079,-3.02734 -2.05079,-4.98047 0,-1.95311 0.68359,-3.59374 2.05079,-4.92187 1.40624,-1.36718 3.12498,-2.05077 5.15625,-2.05078 1.95311,10e-6 3.61326,0.6836 4.98046,2.05078 1.36717,1.32813 2.05077,2.96876 2.05079,4.92187"
         style=""
         id="path4192" />
      <path
         d="m 458.28662,648.65753 c 0,0 21.62109,0 21.62109,0 -2e-5,-2.61714 0.46873,-5.19527 1.40625,-7.73437 1.6406,-4.45308 4.3945,-8.00776 8.26172,-10.66407 3.86715,-2.69525 8.18355,-4.0429 12.94922,-4.04296 6.91401,6e-5 12.67572,2.61724 17.28516,7.85156 3.59368,4.10161 5.39055,8.96489 5.39062,14.58984 0,0 21.6211,0 21.6211,0 -10e-5,-10.89839 -3.61337,-20.44916 -10.83985,-28.65234 -8.24226,-9.33586 -19.39459,-14.00383 -33.45703,-14.00391 -14.06253,8e-5 -25.21487,4.66805 -33.45703,14.00391 -3.28126,3.711 -5.89845,8.18365 -7.85156,13.41797 -1.95313,5.19536 -2.92969,10.27348 -2.92969,15.23437 z m 21.62109,0 c 0,0 -21.62109,0 -21.62109,0 0,10.85941 3.61327,20.39065 10.83984,28.59375 8.24217,9.33594 19.37497,14.00391 33.39844,14.00391 14.06244,0 25.21477,-4.66797 33.45703,-14.00391 7.22648,-8.2031 10.83975,-17.73434 10.83985,-28.59375 0,0 -21.6211,0 -21.6211,0 -7e-5,5.50785 -1.79694,10.35159 -5.39062,14.53125 -4.49225,5.2344 -10.25396,7.85158 -17.28516,7.85156 -7.03129,2e-5 -12.77347,-2.63669 -17.22656,-7.91015 -3.59378,-4.25779 -5.39065,-9.082 -5.39063,-14.47266 z"
         style=""
         id="path4194"
         sodipodi:nodetypes="csscsccccsccscccsccccsss" />
      <path
         d="m 656.74365,688.38409 -20.80078,0 -5.91797,-46.05468 -19.33594,46.05468 -8.26171,0 -18.45704,-46.05468 -6.79687,46.05468 -20.68359,0 13.59375,-79.98046 20.50781,0 16.23047,42.65625 17.16797,-42.65625 20.68359,0 12.07031,79.98046"
         style=""
         id="path4196" />
      <path
         d="m 750.14209,643.97003 c -9e-5,8.67191 -0.97665,15.74222 -2.92969,21.21094 -2.96883,8.32033 -7.87117,14.72657 -14.70703,19.21875 -6.60163,4.29687 -14.41412,6.44531 -23.4375,6.44531 -14.68753,0 -25.95705,-5 -33.80859,-15 -5.93751,-7.5781 -8.90626,-16.62106 -8.90625,-27.1289 -10e-6,-11.64058 3.47655,-21.42572 10.42968,-29.35547 7.89061,-9.02336 18.90622,-13.53508 33.04688,-13.53516 9.45307,8e-5 17.46087,2.42196 24.02344,7.26563 4.68742,3.43757 8.69132,8.51569 12.01172,15.23437 l -19.7461,8.14453 c -1.67975,-3.74994 -3.63287,-6.56244 -5.85937,-8.4375 -3.20318,-2.65619 -7.01177,-3.98431 -11.42578,-3.98437 -9.02348,6e-5 -15.31254,4.66803 -18.86719,14.0039 -1.32815,3.43755 -1.99222,6.99223 -1.99219,10.66407 -3e-5,7.61722 2.40232,13.96486 7.20703,19.04296 3.55465,3.78908 8.30074,5.68361 14.23828,5.6836 5.27339,10e-6 9.45307,-1.54295 12.53907,-4.62891 2.03118,-2.03123 3.35931,-5.03904 3.98437,-9.02344 l -17.05078,0 0,-15.82031 41.25,0"
         style=""
         id="path4198" />
      <path
         d="m 796.78271,608.40363 20.80079,16.8164 6.97265,0 c 4.17965,6e-5 7.12887,0.8985 8.84766,2.69531 1.75776,1.75788 2.63667,4.12115 2.63672,7.08985 -5e-5,3.00786 -0.76177,5.39067 -2.28516,7.14844 -1.67973,1.95316 -4.76566,2.92973 -9.25781,2.92968 l -6.91406,0 0,16.81641 13.00781,0 c 10.23432,3e-5 17.55853,-3.06638 21.97265,-9.19922 3.39837,-4.72652 5.09759,-10.70308 5.09766,-17.92969 -7e-5,-7.34369 -2.10944,-13.37884 -6.32812,-18.10547 -4.88287,-5.50773 -12.0313,-8.26163 -21.44532,-8.26171 l -33.10547,0 z m 20.80079,16.8164 -20.80079,-16.8164 0,79.98046 20.80079,0 0,-26.48437 0,-16.81641 0,-19.86328 z"
         style=""
         id="path4200"
         sodipodi:nodetypes="cccccccccccccccccccccc" />
      <path
         d="m 886.78271,648.65753 c 0,0 -21.62109,0 -21.62109,0 0,-4.96089 0.97656,-10.03901 2.92969,-15.23437 1.95311,-5.23432 4.5703,-9.70697 7.85156,-13.41797 8.24216,-9.33586 19.3945,-14.00383 33.45703,-14.00391 14.06244,8e-5 25.21477,4.66805 33.45703,14.00391 7.22648,8.20318 10.83975,17.75395 10.83985,28.65234 0,0 -21.6211,0 -21.6211,0 -7e-5,-5.62495 -1.79694,-10.48823 -5.39062,-14.58984 -4.60944,-5.23432 -10.37115,-7.8515 -17.28516,-7.85156 -4.76567,6e-5 -9.08207,1.34771 -12.94922,4.04296 -3.86722,2.65631 -6.62112,6.21099 -8.26172,10.66407 -0.93752,2.5391 -1.40627,5.11723 -1.40625,7.73437 z m -21.62109,0 c 0,0 21.62109,0 21.62109,0 -2e-5,5.39066 1.79685,10.21487 5.39063,14.47266 4.45309,5.27346 10.19527,7.91017 17.22656,7.91015 7.0312,2e-5 12.79291,-2.61716 17.28516,-7.85156 3.59368,-4.17966 5.39055,-9.0234 5.39062,-14.53125 0,0 21.6211,0 21.6211,0 -10e-5,10.85941 -3.61337,20.39065 -10.83985,28.59375 -8.24226,9.33594 -19.39459,14.00391 -33.45703,14.00391 -14.02347,0 -25.15627,-4.66797 -33.39844,-14.00391 -7.22657,-8.2031 -10.83984,-17.73434 -10.83984,-28.59375 z"
         style=""
         id="path4202"
         sodipodi:nodetypes="ccccsccccscscccssccccscs" />
      <path
         d="m 1046.8022,688.38409 -20.8007,0 -38.26175,-48.98437 0,48.98437 -20.80079,0 0,-79.98046 20.80079,0 38.26175,48.92578 0,-48.92578 20.8007,0 0,79.98046"
         style=""
         id="path4204" />
      <path
         d="m 1084.5366,688.38409 -20.8008,0 0,-79.98046 20.8008,0 0,79.98046"
         style=""
         id="path4206" />
      <path
         d="m 1146.9976,688.38409 -45.5274,0 0,-79.98046 45.5274,0 0,17.40234 -24.7266,0 0,13.53516 23.3789,0 0,17.40234 -23.3789,0 0,14.23828 24.7266,0 0,17.40234"
         style=""
         id="path4208" />
      <path
         d="m 1215.728,661.89972 c 0,13.51564 -5.9375,22.32422 -17.8125,26.42578 -4.1406,1.44531 -8.5938,2.16797 -13.3593,2.16797 -10.0001,0 -19.2774,-3.02734 -27.8321,-9.08203 l 8.9063,-16.75781 c 6.25,5.62501 12.3632,8.43751 18.3398,8.4375 2.6953,10e-6 4.9804,-0.62499 6.8555,-1.875 2.1874,-1.40624 3.2812,-3.39842 3.2812,-5.97657 0,-2.34372 -1.2109,-4.29684 -3.6328,-5.85937 -1.7969,-1.17185 -4.8242,-2.36325 -9.082,-3.57422 -5.1563,-1.5234 -8.3985,-2.57809 -9.7266,-3.16406 -2.1094,-0.8984 -3.9062,-1.95309 -5.3906,-3.16407 -4.2578,-3.51558 -6.3867,-8.82807 -6.3867,-15.9375 0,-7.42181 2.207,-13.57415 6.6211,-18.45703 5.1562,-5.74211 12.0312,-8.6132 20.625,-8.61328 8.6327,8e-5 17.0898,2.16805 25.3711,6.50391 l -8.3203,16.17187 c -4.5313,-3.51556 -9.1016,-5.27337 -13.711,-5.27343 -2.2266,6e-5 -4.2188,0.56647 -5.9765,1.69921 -1.9923,1.28913 -2.9884,3.00788 -2.9883,5.15625 -10e-5,2.10943 1.3085,3.92584 3.9258,5.44922 1.1718,0.70318 4.6874,1.91412 10.5468,3.63282 7.3437,2.14848 12.5781,5.19535 15.7032,9.14062 2.6952,3.35941 4.0429,7.67581 4.0429,12.94922"
         style=""
         id="path4210" />
      <path
         d="m 1227.6226,602.48566 25.4882,0 0,19.57031 -4.9218,39.31641 -15.7618,0 -4.8046,-39.31641 0,-19.57031 m 0.8789,64.86328 23.789,0 0,21.03515 -23.789,0 0,-21.03515"
         style="font-size:120px;font-style:normal;font-variant:normal;font-weight:900;font-stretch:normal;font-family:Arial Black;-inkscape-font-specification:'Arial Black, Heavy'"
         id="path4212" />
    </g>
    <path
       id="path3774"
       d="m 343.52465,740.78332 c 0,0 5.8125,-11.71875 5.8125,-11.71875 l 0,-113.78125 53,-53 879.34375,0 6.9062,-9.78125 c -1.092,-1.21374 -2.711,-1.93591 -4.3437,-1.9375 l -884.31255,0 c -1.53879,-0.004 -3.06947,0.6293 -4.1562,1.71875 l -56.4063,56.4375 c -1.08207,1.0794 -1.71423,2.59661 -1.7187,4.125 l 0,122.09375 c 0.004,3.06924 2.80579,5.85656 5.875,5.84375 z m 5.8125,-11.71875 -5.8125,11.71875 1098.78125,-4.5 c 2.2413,-0.02 4.4089,-1.45113 5.3076,-3.50445 0.8987,-2.05333 0.4796,-4.61669 -1.0264,-6.2768 l -158,-174 -6.9062,9.78125 147.4375,162.375 -1079.78125,4.40625 z"
       style="font-size:medium;font-style:normal;font-variant:normal;font-weight:normal;font-stretch:normal;text-indent:0;text-align:start;text-decoration:none;line-height:normal;letter-spacing:normal;word-spacing:normal;text-transform:none;direction:ltr;block-progression:tb;writing-mode:lr-tb;text-anchor:start;color:#000000;fill:#181834;fill-opacity:1;fill-rule:nonzero;stroke:none;stroke-width:11.69999981;marker:none;visibility:visible;display:inline;overflow:visible;enable-background:accumulate;font-family:Bitstream Vera Sans;-inkscape-font-specification:Bitstream Vera Sans"
       sodipodi:nodetypes="ccccccccccccccccsccccc" />
    <path
       id="path3776"
       d="m 369.52465,740.65832 171.84374,-1.21875 8.21871,-11.71875 -171.87495,1.1875 -8.1875,11.75 z m 295.56245,-178.375 8.1875,-11.71875 -170.96871,0 -8.1875,11.71875 170.96871,0 z"
       style="color:#000000;fill:#4d4a66;fill-opacity:1;fill-rule:nonzero;stroke:none;stroke-width:11.69999981;marker:none;visibility:visible;display:inline;overflow:visible;enable-background:accumulate" />
    <g
       id="g3778"
       transform="matrix(-1,0,0,-1,1322.9392,788.47968)">
      <path
         sodipodi:type="arc"
         style="color:#000000;fill:#df9137;fill-opacity:1;fill-rule:nonzero;stroke:none;stroke-width:10;marker:none;visibility:visible;display:inline;overflow:visible;enable-background:accumulate"
         id="path3780"
         sodipodi:cx="-4.8535585"
         sodipodi:cy="147.28009"
         sodipodi:rx="8.8981905"
         sodipodi:ry="8.8981905"
         d="m 4.044632,147.28009 c 0,4.91434 -3.98385563,8.89819 -8.8981905,8.89819 -4.914335,0 -8.8981905,-3.98385 -8.8981905,-8.89819 0,-4.91433 3.9838555,-8.89819 8.8981905,-8.89819 4.91433487,0 8.8981905,3.98386 8.8981905,8.89819 z" />
      <path
         sodipodi:type="star"
         style="color:#000000;fill:#a55a33;fill-opacity:1;fill-rule:nonzero;stroke:none;stroke-width:10;marker:none;visibility:visible;display:inline;overflow:visible;enable-background:accumulate"
         id="path3782"
         sodipodi:sides="6"
         sodipodi:cx="-4.3265491"
         sodipodi:cy="148.44427"
         sodipodi:r1="6.3753138"
         sodipodi:r2="3.6753635"
         sodipodi:arg1="0.78539816"
         sodipodi:arg2="1.3089969"
         inkscape:flatsided="false"
         inkscape:rounded="0.35"
         inkscape:randomized="0"
         d="m 0.18147855,152.9523 c -0.91162089,0.91162 -2.31147605,-1.29157 -3.55677335,-0.9579 -1.2452974,0.33368 -1.3560094,2.94163 -2.6013069,2.60796 -1.2452973,-0.33368 -0.037201,-2.64759 -0.9488217,-3.55921 -0.911621,-0.91162 -3.2255296,0.29647 -3.5592056,-0.94882 -0.333677,-1.2453 2.2742749,-1.35601 2.6079513,-2.60131 0.3336765,-1.2453 -1.8695199,-2.64515 -0.957899,-3.55677 0.9116209,-0.91162 2.3114761,1.29157 3.5567734,0.9579 1.2452974,-0.33368 1.3560094,-2.94163 2.6013068,-2.60796 1.2452974,0.33368 0.037201,2.64759 0.9488218,3.55921 0.91162101,0.91162 3.2255294,-0.29648 3.5592059,0.94882 0.3336764,1.2453 -2.27427524,1.35601 -2.60795165,2.60131 -0.33367645,1.2453 1.86951995,2.64515 0.957899,3.55677 z"
         transform="translate(-0.52700949,-1.1641846)" />
    </g>
    <g
       transform="matrix(-1,0,0,-1,1381.1662,855.58229)"
       id="g3784">
      <path
         d="m 4.044632,147.28009 c 0,4.91434 -3.98385563,8.89819 -8.8981905,8.89819 -4.914335,0 -8.8981905,-3.98385 -8.8981905,-8.89819 0,-4.91433 3.9838555,-8.89819 8.8981905,-8.89819 4.91433487,0 8.8981905,3.98386 8.8981905,8.89819 z"
         sodipodi:ry="8.8981905"
         sodipodi:rx="8.8981905"
         sodipodi:cy="147.28009"
         sodipodi:cx="-4.8535585"
         id="path3786"
         style="color:#000000;fill:#df9137;fill-opacity:1;fill-rule:nonzero;stroke:none;stroke-width:10;marker:none;visibility:visible;display:inline;overflow:visible;enable-background:accumulate"
         sodipodi:type="arc" />
      <path
         transform="translate(-0.52700949,-1.1641846)"
         d="m 0.18147855,152.9523 c -0.91162089,0.91162 -2.31147605,-1.29157 -3.55677335,-0.9579 -1.2452974,0.33368 -1.3560094,2.94163 -2.6013069,2.60796 -1.2452973,-0.33368 -0.037201,-2.64759 -0.9488217,-3.55921 -0.911621,-0.91162 -3.2255296,0.29647 -3.5592056,-0.94882 -0.333677,-1.2453 2.2742749,-1.35601 2.6079513,-2.60131 0.3336765,-1.2453 -1.8695199,-2.64515 -0.957899,-3.55677 0.9116209,-0.91162 2.3114761,1.29157 3.5567734,0.9579 1.2452974,-0.33368 1.3560094,-2.94163 2.6013068,-2.60796 1.2452974,0.33368 0.037201,2.64759 0.9488218,3.55921 0.91162101,0.91162 3.2255294,-0.29648 3.5592059,0.94882 0.3336764,1.2453 -2.27427524,1.35601 -2.60795165,2.60131 -0.33367645,1.2453 1.86951995,2.64515 0.957899,3.55677 z"
         inkscape:randomized="0"
         inkscape:rounded="0.35"
         inkscape:flatsided="false"
         sodipodi:arg2="1.3089969"
         sodipodi:arg1="0.78539816"
         sodipodi:r2="3.6753635"
         sodipodi:r1="6.3753138"
         sodipodi:cy="148.44427"
         sodipodi:cx="-4.3265491"
         sodipodi:sides="6"
         id="path3788"
         style="color:#000000;fill:#a55a33;fill-opacity:1;fill-rule:nonzero;stroke:none;stroke-width:10;marker:none;visibility:visible;display:inline;overflow:visible;enable-background:accumulate"
         sodipodi:type="star" />
    </g>
    <g
       id="g3790"
       transform="matrix(-1,0,0,-1,357.16625,855.58229)">
      <path
         sodipodi:type="arc"
         style="color:#000000;fill:#df9137;fill-opacity:1;fill-rule:nonzero;stroke:none;stroke-width:10;marker:none;visibility:visible;display:inline;overflow:visible;enable-background:accumulate"
         id="path3792"
         sodipodi:cx="-4.8535585"
         sodipodi:cy="147.28009"
         sodipodi:rx="8.8981905"
         sodipodi:ry="8.8981905"
         d="m 4.044632,147.28009 c 0,4.91434 -3.98385563,8.89819 -8.8981905,8.89819 -4.914335,0 -8.8981905,-3.98385 -8.8981905,-8.89819 0,-4.91433 3.9838555,-8.89819 8.8981905,-8.89819 4.91433487,0 8.8981905,3.98386 8.8981905,8.89819 z" />
      <path
         sodipodi:type="star"
         style="color:#000000;fill:#a55a33;fill-opacity:1;fill-rule:nonzero;stroke:none;stroke-width:10;marker:none;visibility:visible;display:inline;overflow:visible;enable-background:accumulate"
         id="path3794"
         sodipodi:sides="6"
         sodipodi:cx="-4.3265491"
         sodipodi:cy="148.44427"
         sodipodi:r1="6.3753138"
         sodipodi:r2="3.6753635"
         sodipodi:arg1="0.78539816"
         sodipodi:arg2="1.3089969"
         inkscape:flatsided="false"
         inkscape:rounded="0.35"
         inkscape:randomized="0"
         d="m 0.18147855,152.9523 c -0.91162089,0.91162 -2.31147605,-1.29157 -3.55677335,-0.9579 -1.2452974,0.33368 -1.3560094,2.94163 -2.6013069,2.60796 -1.2452973,-0.33368 -0.037201,-2.64759 -0.9488217,-3.55921 -0.911621,-0.91162 -3.2255296,0.29647 -3.5592056,-0.94882 -0.333677,-1.2453 2.2742749,-1.35601 2.6079513,-2.60131 0.3336765,-1.2453 -1.8695199,-2.64515 -0.957899,-3.55677 0.9116209,-0.91162 2.3114761,1.29157 3.5567734,0.9579 1.2452974,-0.33368 1.3560094,-2.94163 2.6013068,-2.60796 1.2452974,0.33368 0.037201,2.64759 0.9488218,3.55921 0.91162101,0.91162 3.2255294,-0.29648 3.5592059,0.94882 0.3336764,1.2453 -2.27427524,1.35601 -2.60795165,2.60131 -0.33367645,1.2453 1.86951995,2.64515 0.957899,3.55677 z"
         transform="translate(-0.52700949,-1.1641846)" />
    </g>
    <g
       transform="matrix(-1,0,0,-1,357.16625,771.58229)"
       id="g3796">
      <path
         d="m 4.044632,147.28009 c 0,4.91434 -3.98385563,8.89819 -8.8981905,8.89819 -4.914335,0 -8.8981905,-3.98385 -8.8981905,-8.89819 0,-4.91433 3.9838555,-8.89819 8.8981905,-8.89819 4.91433487,0 8.8981905,3.98386 8.8981905,8.89819 z"
         sodipodi:ry="8.8981905"
         sodipodi:rx="8.8981905"
         sodipodi:cy="147.28009"
         sodipodi:cx="-4.8535585"
         id="path3798"
         style="color:#000000;fill:#df9137;fill-opacity:1;fill-rule:nonzero;stroke:none;stroke-width:10;marker:none;visibility:visible;display:inline;overflow:visible;enable-background:accumulate"
         sodipodi:type="arc" />
      <path
         transform="translate(-0.52700949,-1.1641846)"
         d="m 0.18147855,152.9523 c -0.91162089,0.91162 -2.31147605,-1.29157 -3.55677335,-0.9579 -1.2452974,0.33368 -1.3560094,2.94163 -2.6013069,2.60796 -1.2452973,-0.33368 -0.037201,-2.64759 -0.9488217,-3.55921 -0.911621,-0.91162 -3.2255296,0.29647 -3.5592056,-0.94882 -0.333677,-1.2453 2.2742749,-1.35601 2.6079513,-2.60131 0.3336765,-1.2453 -1.8695199,-2.64515 -0.957899,-3.55677 0.9116209,-0.91162 2.3114761,1.29157 3.5567734,0.9579 1.2452974,-0.33368 1.3560094,-2.94163 2.6013068,-2.60796 1.2452974,0.33368 0.037201,2.64759 0.9488218,3.55921 0.91162101,0.91162 3.2255294,-0.29648 3.5592059,0.94882 0.3336764,1.2453 -2.27427524,1.35601 -2.60795165,2.60131 -0.33367645,1.2453 1.86951995,2.64515 0.957899,3.55677 z"
         inkscape:randomized="0"
         inkscape:rounded="0.35"
         inkscape:flatsided="false"
         sodipodi:arg2="1.3089969"
         sodipodi:arg1="0.78539816"
         sodipodi:r2="3.6753635"
         sodipodi:r1="6.3753138"
         sodipodi:cy="148.44427"
         sodipodi:cx="-4.3265491"
         sodipodi:sides="6"
         id="path3800"
         style="color:#000000;fill:#a55a33;fill-opacity:1;fill-rule:nonzero;stroke:none;stroke-width:10;marker:none;visibility:visible;display:inline;overflow:visible;enable-background:accumulate"
         sodipodi:type="star" />
    </g>
    <g
       id="g3802"
       transform="matrix(-1,0,0,-1,408.71215,721.37707)">
      <path
         sodipodi:type="arc"
         style="color:#000000;fill:#df9137;fill-opacity:1;fill-rule:nonzero;stroke:none;stroke-width:10;marker:none;visibility:visible;display:inline;overflow:visible;enable-background:accumulate"
         id="path3804"
         sodipodi:cx="-4.8535585"
         sodipodi:cy="147.28009"
         sodipodi:rx="8.8981905"
         sodipodi:ry="8.8981905"
         d="m 4.044632,147.28009 c 0,4.91434 -3.98385563,8.89819 -8.8981905,8.89819 -4.914335,0 -8.8981905,-3.98385 -8.8981905,-8.89819 0,-4.91433 3.9838555,-8.89819 8.8981905,-8.89819 4.91433487,0 8.8981905,3.98386 8.8981905,8.89819 z" />
      <path
         sodipodi:type="star"
         style="color:#000000;fill:#a55a33;fill-opacity:1;fill-rule:nonzero;stroke:none;stroke-width:10;marker:none;visibility:visible;display:inline;overflow:visible;enable-background:accumulate"
         id="path3806"
         sodipodi:sides="6"
         sodipodi:cx="-4.3265491"
         sodipodi:cy="148.44427"
         sodipodi:r1="6.3753138"
         sodipodi:r2="3.6753635"
         sodipodi:arg1="0.78539816"
         sodipodi:arg2="1.3089969"
         inkscape:flatsided="false"
         inkscape:rounded="0.35"
         inkscape:randomized="0"
         d="m 0.18147855,152.9523 c -0.91162089,0.91162 -2.31147605,-1.29157 -3.55677335,-0.9579 -1.2452974,0.33368 -1.3560094,2.94163 -2.6013069,2.60796 -1.2452973,-0.33368 -0.037201,-2.64759 -0.9488217,-3.55921 -0.911621,-0.91162 -3.2255296,0.29647 -3.5592056,-0.94882 -0.333677,-1.2453 2.2742749,-1.35601 2.6079513,-2.60131 0.3336765,-1.2453 -1.8695199,-2.64515 -0.957899,-3.55677 0.9116209,-0.91162 2.3114761,1.29157 3.5567734,0.9579 1.2452974,-0.33368 1.3560094,-2.94163 2.6013068,-2.60796 1.2452974,0.33368 0.037201,2.64759 0.9488218,3.55921 0.91162101,0.91162 3.2255294,-0.29648 3.5592059,0.94882 0.3336764,1.2453 -2.27427524,1.35601 -2.60795165,2.60131 -0.33367645,1.2453 1.86951995,2.64515 0.957899,3.55677 z"
         transform="translate(-0.52700949,-1.1641846)" />
    </g>
    <g
       id="g3808"
       transform="matrix(-1,0,0,-1,515.71212,721.37707)">
      <path
         sodipodi:type="arc"
         style="color:#000000;fill:#df9137;fill-opacity:1;fill-rule:nonzero;stroke:none;stroke-width:10;marker:none;visibility:visible;display:inline;overflow:visible;enable-background:accumulate"
         id="path3810"
         sodipodi:cx="-4.8535585"
         sodipodi:cy="147.28009"
         sodipodi:rx="8.8981905"
         sodipodi:ry="8.8981905"
         d="m 4.044632,147.28009 c 0,4.91434 -3.98385563,8.89819 -8.8981905,8.89819 -4.914335,0 -8.8981905,-3.98385 -8.8981905,-8.89819 0,-4.91433 3.9838555,-8.89819 8.8981905,-8.89819 4.91433487,0 8.8981905,3.98386 8.8981905,8.89819 z" />
      <path
         sodipodi:type="star"
         style="color:#000000;fill:#a55a33;fill-opacity:1;fill-rule:nonzero;stroke:none;stroke-width:10;marker:none;visibility:visible;display:inline;overflow:visible;enable-background:accumulate"
         id="path3812"
         sodipodi:sides="6"
         sodipodi:cx="-4.3265491"
         sodipodi:cy="148.44427"
         sodipodi:r1="6.3753138"
         sodipodi:r2="3.6753635"
         sodipodi:arg1="0.78539816"
         sodipodi:arg2="1.3089969"
         inkscape:flatsided="false"
         inkscape:rounded="0.35"
         inkscape:randomized="0"
         d="m 0.18147855,152.9523 c -0.91162089,0.91162 -2.31147605,-1.29157 -3.55677335,-0.9579 -1.2452974,0.33368 -1.3560094,2.94163 -2.6013069,2.60796 -1.2452973,-0.33368 -0.037201,-2.64759 -0.9488217,-3.55921 -0.911621,-0.91162 -3.2255296,0.29647 -3.5592056,-0.94882 -0.333677,-1.2453 2.2742749,-1.35601 2.6079513,-2.60131 0.3336765,-1.2453 -1.8695199,-2.64515 -0.957899,-3.55677 0.9116209,-0.91162 2.3114761,1.29157 3.5567734,0.9579 1.2452974,-0.33368 1.3560094,-2.94163 2.6013068,-2.60796 1.2452974,0.33368 0.037201,2.64759 0.9488218,3.55921 0.91162101,0.91162 3.2255294,-0.29648 3.5592059,0.94882 0.3336764,1.2453 -2.27427524,1.35601 -2.60795165,2.60131 -0.33367645,1.2453 1.86951995,2.64515 0.957899,3.55677 z"
         transform="translate(-0.52700949,-1.1641846)" />
    </g>
    <g
       transform="matrix(-1,0,0,-1,622.71211,721.37707)"
       id="g3814">
      <path
         d="m 4.044632,147.28009 c 0,4.91434 -3.98385563,8.89819 -8.8981905,8.89819 -4.914335,0 -8.8981905,-3.98385 -8.8981905,-8.89819 0,-4.91433 3.9838555,-8.89819 8.8981905,-8.89819 4.91433487,0 8.8981905,3.98386 8.8981905,8.89819 z"
         sodipodi:ry="8.8981905"
         sodipodi:rx="8.8981905"
         sodipodi:cy="147.28009"
         sodipodi:cx="-4.8535585"
         id="path3816"
         style="color:#000000;fill:#df9137;fill-opacity:1;fill-rule:nonzero;stroke:none;stroke-width:10;marker:none;visibility:visible;display:inline;overflow:visible;enable-background:accumulate"
         sodipodi:type="arc" />
      <path
         transform="translate(-0.52700949,-1.1641846)"
         d="m 0.18147855,152.9523 c -0.91162089,0.91162 -2.31147605,-1.29157 -3.55677335,-0.9579 -1.2452974,0.33368 -1.3560094,2.94163 -2.6013069,2.60796 -1.2452973,-0.33368 -0.037201,-2.64759 -0.9488217,-3.55921 -0.911621,-0.91162 -3.2255296,0.29647 -3.5592056,-0.94882 -0.333677,-1.2453 2.2742749,-1.35601 2.6079513,-2.60131 0.3336765,-1.2453 -1.8695199,-2.64515 -0.957899,-3.55677 0.9116209,-0.91162 2.3114761,1.29157 3.5567734,0.9579 1.2452974,-0.33368 1.3560094,-2.94163 2.6013068,-2.60796 1.2452974,0.33368 0.037201,2.64759 0.9488218,3.55921 0.91162101,0.91162 3.2255294,-0.29648 3.5592059,0.94882 0.3336764,1.2453 -2.27427524,1.35601 -2.60795165,2.60131 -0.33367645,1.2453 1.86951995,2.64515 0.957899,3.55677 z"
         inkscape:randomized="0"
         inkscape:rounded="0.35"
         inkscape:flatsided="false"
         sodipodi:arg2="1.3089969"
         sodipodi:arg1="0.78539816"
         sodipodi:r2="3.6753635"
         sodipodi:r1="6.3753138"
         sodipodi:cy="148.44427"
         sodipodi:cx="-4.3265491"
         sodipodi:sides="6"
         id="path3818"
         style="color:#000000;fill:#a55a33;fill-opacity:1;fill-rule:nonzero;stroke:none;stroke-width:10;marker:none;visibility:visible;display:inline;overflow:visible;enable-background:accumulate"
         sodipodi:type="star" />
    </g>
    <g
       id="g3820"
       transform="matrix(-1,0,0,-1,729.7121,721.37707)">
      <path
         sodipodi:type="arc"
         style="color:#000000;fill:#df9137;fill-opacity:1;fill-rule:nonzero;stroke:none;stroke-width:10;marker:none;visibility:visible;display:inline;overflow:visible;enable-background:accumulate"
         id="path3822"
         sodipodi:cx="-4.8535585"
         sodipodi:cy="147.28009"
         sodipodi:rx="8.8981905"
         sodipodi:ry="8.8981905"
         d="m 4.044632,147.28009 c 0,4.91434 -3.98385563,8.89819 -8.8981905,8.89819 -4.914335,0 -8.8981905,-3.98385 -8.8981905,-8.89819 0,-4.91433 3.9838555,-8.89819 8.8981905,-8.89819 4.91433487,0 8.8981905,3.98386 8.8981905,8.89819 z" />
      <path
         sodipodi:type="star"
         style="color:#000000;fill:#a55a33;fill-opacity:1;fill-rule:nonzero;stroke:none;stroke-width:10;marker:none;visibility:visible;display:inline;overflow:visible;enable-background:accumulate"
         id="path3824"
         sodipodi:sides="6"
         sodipodi:cx="-4.3265491"
         sodipodi:cy="148.44427"
         sodipodi:r1="6.3753138"
         sodipodi:r2="3.6753635"
         sodipodi:arg1="0.78539816"
         sodipodi:arg2="1.3089969"
         inkscape:flatsided="false"
         inkscape:rounded="0.35"
         inkscape:randomized="0"
         d="m 0.18147855,152.9523 c -0.91162089,0.91162 -2.31147605,-1.29157 -3.55677335,-0.9579 -1.2452974,0.33368 -1.3560094,2.94163 -2.6013069,2.60796 -1.2452973,-0.33368 -0.037201,-2.64759 -0.9488217,-3.55921 -0.911621,-0.91162 -3.2255296,0.29647 -3.5592056,-0.94882 -0.333677,-1.2453 2.2742749,-1.35601 2.6079513,-2.60131 0.3336765,-1.2453 -1.8695199,-2.64515 -0.957899,-3.55677 0.9116209,-0.91162 2.3114761,1.29157 3.5567734,0.9579 1.2452974,-0.33368 1.3560094,-2.94163 2.6013068,-2.60796 1.2452974,0.33368 0.037201,2.64759 0.9488218,3.55921 0.91162101,0.91162 3.2255294,-0.29648 3.5592059,0.94882 0.3336764,1.2453 -2.27427524,1.35601 -2.60795165,2.60131 -0.33367645,1.2453 1.86951995,2.64515 0.957899,3.55677 z"
         transform="translate(-0.52700949,-1.1641846)" />
    </g>
    <g
       transform="matrix(-1,0,0,-1,836.71209,721.37707)"
       id="g3826">
      <path
         sodipodi:type="arc"
         style="color:#000000;fill:#df9137;fill-opacity:1;fill-rule:nonzero;stroke:none;stroke-width:10;marker:none;visibility:visible;display:inline;overflow:visible;enable-background:accumulate"
         id="path3828"
         sodipodi:cx="-4.8535585"
         sodipodi:cy="147.28009"
         sodipodi:rx="8.8981905"
         sodipodi:ry="8.8981905"
         d="m 4.044632,147.28009 c 0,4.91434 -3.98385563,8.89819 -8.8981905,8.89819 -4.914335,0 -8.8981905,-3.98385 -8.8981905,-8.89819 0,-4.91433 3.9838555,-8.89819 8.8981905,-8.89819 4.91433487,0 8.8981905,3.98386 8.8981905,8.89819 z" />
      <path
         sodipodi:type="star"
         style="color:#000000;fill:#a55a33;fill-opacity:1;fill-rule:nonzero;stroke:none;stroke-width:10;marker:none;visibility:visible;display:inline;overflow:visible;enable-background:accumulate"
         id="path3830"
         sodipodi:sides="6"
         sodipodi:cx="-4.3265491"
         sodipodi:cy="148.44427"
         sodipodi:r1="6.3753138"
         sodipodi:r2="3.6753635"
         sodipodi:arg1="0.78539816"
         sodipodi:arg2="1.3089969"
         inkscape:flatsided="false"
         inkscape:rounded="0.35"
         inkscape:randomized="0"
         d="m 0.18147855,152.9523 c -0.91162089,0.91162 -2.31147605,-1.29157 -3.55677335,-0.9579 -1.2452974,0.33368 -1.3560094,2.94163 -2.6013069,2.60796 -1.2452973,-0.33368 -0.037201,-2.64759 -0.9488217,-3.55921 -0.911621,-0.91162 -3.2255296,0.29647 -3.5592056,-0.94882 -0.333677,-1.2453 2.2742749,-1.35601 2.6079513,-2.60131 0.3336765,-1.2453 -1.8695199,-2.64515 -0.957899,-3.55677 0.9116209,-0.91162 2.3114761,1.29157 3.5567734,0.9579 1.2452974,-0.33368 1.3560094,-2.94163 2.6013068,-2.60796 1.2452974,0.33368 0.037201,2.64759 0.9488218,3.55921 0.91162101,0.91162 3.2255294,-0.29648 3.5592059,0.94882 0.3336764,1.2453 -2.27427524,1.35601 -2.60795165,2.60131 -0.33367645,1.2453 1.86951995,2.64515 0.957899,3.55677 z"
         transform="translate(-0.52700949,-1.1641846)" />
    </g>
    <g
       id="g3860"
       transform="matrix(-1,0,0,-1,1264.7121,721.37707)">
      <path
         d="m 4.044632,147.28009 c 0,4.91434 -3.98385563,8.89819 -8.8981905,8.89819 -4.914335,0 -8.8981905,-3.98385 -8.8981905,-8.89819 0,-4.91433 3.9838555,-8.89819 8.8981905,-8.89819 4.91433487,0 8.8981905,3.98386 8.8981905,8.89819 z"
         sodipodi:ry="8.8981905"
         sodipodi:rx="8.8981905"
         sodipodi:cy="147.28009"
         sodipodi:cx="-4.8535585"
         id="path3862"
         style="color:#000000;fill:#df9137;fill-opacity:1;fill-rule:nonzero;stroke:none;stroke-width:10;marker:none;visibility:visible;display:inline;overflow:visible;enable-background:accumulate"
         sodipodi:type="arc" />
      <path
         transform="translate(-0.52700949,-1.1641846)"
         d="m 0.18147855,152.9523 c -0.91162089,0.91162 -2.31147605,-1.29157 -3.55677335,-0.9579 -1.2452974,0.33368 -1.3560094,2.94163 -2.6013069,2.60796 -1.2452973,-0.33368 -0.037201,-2.64759 -0.9488217,-3.55921 -0.911621,-0.91162 -3.2255296,0.29647 -3.5592056,-0.94882 -0.333677,-1.2453 2.2742749,-1.35601 2.6079513,-2.60131 0.3336765,-1.2453 -1.8695199,-2.64515 -0.957899,-3.55677 0.9116209,-0.91162 2.3114761,1.29157 3.5567734,0.9579 1.2452974,-0.33368 1.3560094,-2.94163 2.6013068,-2.60796 1.2452974,0.33368 0.037201,2.64759 0.9488218,3.55921 0.91162101,0.91162 3.2255294,-0.29648 3.5592059,0.94882 0.3336764,1.2453 -2.27427524,1.35601 -2.60795165,2.60131 -0.33367645,1.2453 1.86951995,2.64515 0.957899,3.55677 z"
         inkscape:randomized="0"
         inkscape:rounded="0.35"
         inkscape:flatsided="false"
         sodipodi:arg2="1.3089969"
         sodipodi:arg1="0.78539816"
         sodipodi:r2="3.6753635"
         sodipodi:r1="6.3753138"
         sodipodi:cy="148.44427"
         sodipodi:cx="-4.3265491"
         sodipodi:sides="6"
         id="path3864"
         style="color:#000000;fill:#a55a33;fill-opacity:1;fill-rule:nonzero;stroke:none;stroke-width:10;marker:none;visibility:visible;display:inline;overflow:visible;enable-background:accumulate"
         sodipodi:type="star" />
    </g>
    <g
       id="g3910"
       transform="matrix(-1,0,0,-1,943.71211,721.37707)">
      <path
         sodipodi:type="arc"
         style="color:#000000;fill:#df9137;fill-opacity:1;fill-rule:nonzero;stroke:none;stroke-width:10;marker:none;visibility:visible;display:inline;overflow:visible;enable-background:accumulate"
         id="path3912"
         sodipodi:cx="-4.8535585"
         sodipodi:cy="147.28009"
         sodipodi:rx="8.8981905"
         sodipodi:ry="8.8981905"
         d="m 4.044632,147.28009 c 0,4.91434 -3.98385563,8.89819 -8.8981905,8.89819 -4.914335,0 -8.8981905,-3.98385 -8.8981905,-8.89819 0,-4.91433 3.9838555,-8.89819 8.8981905,-8.89819 4.91433487,0 8.8981905,3.98386 8.8981905,8.89819 z" />
      <path
         sodipodi:type="star"
         style="color:#000000;fill:#a55a33;fill-opacity:1;fill-rule:nonzero;stroke:none;stroke-width:10;marker:none;visibility:visible;display:inline;overflow:visible;enable-background:accumulate"
         id="path3914"
         sodipodi:sides="6"
         sodipodi:cx="-4.3265491"
         sodipodi:cy="148.44427"
         sodipodi:r1="6.3753138"
         sodipodi:r2="3.6753635"
         sodipodi:arg1="0.78539816"
         sodipodi:arg2="1.3089969"
         inkscape:flatsided="false"
         inkscape:rounded="0.35"
         inkscape:randomized="0"
         d="m 0.18147855,152.9523 c -0.91162089,0.91162 -2.31147605,-1.29157 -3.55677335,-0.9579 -1.2452974,0.33368 -1.3560094,2.94163 -2.6013069,2.60796 -1.2452973,-0.33368 -0.037201,-2.64759 -0.9488217,-3.55921 -0.911621,-0.91162 -3.2255296,0.29647 -3.5592056,-0.94882 -0.333677,-1.2453 2.2742749,-1.35601 2.6079513,-2.60131 0.3336765,-1.2453 -1.8695199,-2.64515 -0.957899,-3.55677 0.9116209,-0.91162 2.3114761,1.29157 3.5567734,0.9579 1.2452974,-0.33368 1.3560094,-2.94163 2.6013068,-2.60796 1.2452974,0.33368 0.037201,2.64759 0.9488218,3.55921 0.91162101,0.91162 3.2255294,-0.29648 3.5592059,0.94882 0.3336764,1.2453 -2.27427524,1.35601 -2.60795165,2.60131 -0.33367645,1.2453 1.86951995,2.64515 0.957899,3.55677 z"
         transform="translate(-0.52700949,-1.1641846)" />
    </g>
    <g
       transform="matrix(-1,0,0,-1,1050.7121,721.37707)"
       id="g3916">
      <path
         d="m 4.044632,147.28009 c 0,4.91434 -3.98385563,8.89819 -8.8981905,8.89819 -4.914335,0 -8.8981905,-3.98385 -8.8981905,-8.89819 0,-4.91433 3.9838555,-8.89819 8.8981905,-8.89819 4.91433487,0 8.8981905,3.98386 8.8981905,8.89819 z"
         sodipodi:ry="8.8981905"
         sodipodi:rx="8.8981905"
         sodipodi:cy="147.28009"
         sodipodi:cx="-4.8535585"
         id="path3918"
         style="color:#000000;fill:#df9137;fill-opacity:1;fill-rule:nonzero;stroke:none;stroke-width:10;marker:none;visibility:visible;display:inline;overflow:visible;enable-background:accumulate"
         sodipodi:type="arc" />
      <path
         transform="translate(-0.52700949,-1.1641846)"
         d="m 0.18147855,152.9523 c -0.91162089,0.91162 -2.31147605,-1.29157 -3.55677335,-0.9579 -1.2452974,0.33368 -1.3560094,2.94163 -2.6013069,2.60796 -1.2452973,-0.33368 -0.037201,-2.64759 -0.9488217,-3.55921 -0.911621,-0.91162 -3.2255296,0.29647 -3.5592056,-0.94882 -0.333677,-1.2453 2.2742749,-1.35601 2.6079513,-2.60131 0.3336765,-1.2453 -1.8695199,-2.64515 -0.957899,-3.55677 0.9116209,-0.91162 2.3114761,1.29157 3.5567734,0.9579 1.2452974,-0.33368 1.3560094,-2.94163 2.6013068,-2.60796 1.2452974,0.33368 0.037201,2.64759 0.9488218,3.55921 0.91162101,0.91162 3.2255294,-0.29648 3.5592059,0.94882 0.3336764,1.2453 -2.27427524,1.35601 -2.60795165,2.60131 -0.33367645,1.2453 1.86951995,2.64515 0.957899,3.55677 z"
         inkscape:randomized="0"
         inkscape:rounded="0.35"
         inkscape:flatsided="false"
         sodipodi:arg2="1.3089969"
         sodipodi:arg1="0.78539816"
         sodipodi:r2="3.6753635"
         sodipodi:r1="6.3753138"
         sodipodi:cy="148.44427"
         sodipodi:cx="-4.3265491"
         sodipodi:sides="6"
         id="path3920"
         style="color:#000000;fill:#a55a33;fill-opacity:1;fill-rule:nonzero;stroke:none;stroke-width:10;marker:none;visibility:visible;display:inline;overflow:visible;enable-background:accumulate"
         sodipodi:type="star" />
    </g>
    <g
       id="g3922"
       transform="matrix(-1,0,0,-1,1157.7122,721.37707)">
      <path
         d="m 4.044632,147.28009 c 0,4.91434 -3.98385563,8.89819 -8.8981905,8.89819 -4.914335,0 -8.8981905,-3.98385 -8.8981905,-8.89819 0,-4.91433 3.9838555,-8.89819 8.8981905,-8.89819 4.91433487,0 8.8981905,3.98386 8.8981905,8.89819 z"
         sodipodi:ry="8.8981905"
         sodipodi:rx="8.8981905"
         sodipodi:cy="147.28009"
         sodipodi:cx="-4.8535585"
         id="path3924"
         style="color:#000000;fill:#df9137;fill-opacity:1;fill-rule:nonzero;stroke:none;stroke-width:10;marker:none;visibility:visible;display:inline;overflow:visible;enable-background:accumulate"
         sodipodi:type="arc" />
      <path
         transform="translate(-0.52700949,-1.1641846)"
         d="m 0.18147855,152.9523 c -0.91162089,0.91162 -2.31147605,-1.29157 -3.55677335,-0.9579 -1.2452974,0.33368 -1.3560094,2.94163 -2.6013069,2.60796 -1.2452973,-0.33368 -0.037201,-2.64759 -0.9488217,-3.55921 -0.911621,-0.91162 -3.2255296,0.29647 -3.5592056,-0.94882 -0.333677,-1.2453 2.2742749,-1.35601 2.6079513,-2.60131 0.3336765,-1.2453 -1.8695199,-2.64515 -0.957899,-3.55677 0.9116209,-0.91162 2.3114761,1.29157 3.5567734,0.9579 1.2452974,-0.33368 1.3560094,-2.94163 2.6013068,-2.60796 1.2452974,0.33368 0.037201,2.64759 0.9488218,3.55921 0.91162101,0.91162 3.2255294,-0.29648 3.5592059,0.94882 0.3336764,1.2453 -2.27427524,1.35601 -2.60795165,2.60131 -0.33367645,1.2453 1.86951995,2.64515 0.957899,3.55677 z"
         inkscape:randomized="0"
         inkscape:rounded="0.35"
         inkscape:flatsided="false"
         sodipodi:arg2="1.3089969"
         sodipodi:arg1="0.78539816"
         sodipodi:r2="3.6753635"
         sodipodi:r1="6.3753138"
         sodipodi:cy="148.44427"
         sodipodi:cx="-4.3265491"
         sodipodi:sides="6"
         id="path3926"
         style="color:#000000;fill:#a55a33;fill-opacity:1;fill-rule:nonzero;stroke:none;stroke-width:10;marker:none;visibility:visible;display:inline;overflow:visible;enable-background:accumulate"
         sodipodi:type="star" />
    </g>
    <path
       style="color:#000000;fill:#494854;fill-opacity:1;fill-rule:nonzero;stroke:none;stroke-width:11.69999981;marker:none;visibility:visible;display:inline;overflow:visible;enable-background:accumulate"
       d="m 525.1875,648.65625 c 0,0 21.625,0 21.625,0 -9e-5,-10.89839 -3.61728,-20.45306 -10.84375,-28.65625 -8.24226,-9.33586 -19.37506,-13.99992 -33.4375,-14 -14.06253,8e-5 -25.22659,4.66414 -33.46875,14 -3.28126,3.711 -5.89063,8.20319 -7.84375,13.4375 -1.95313,5.19536 -2.9375,10.25786 -2.9375,15.21875 0,0 21.625,0 21.625,0 -3e-5,-2.61715 0.46872,-5.17964 1.40625,-7.71875 1.6406,-4.45307 4.38278,-8.03119 8.25,-10.6875 3.86715,-2.69525 8.20308,-4.03119 12.96875,-4.03125 6.91401,6e-5 12.67181,2.60943 17.28125,7.84375 3.59368,4.10161 5.37493,8.9688 5.375,14.59375 z m 44.90625,-40.25 L 556.5,688.375 l 20.53125,0 0.1875,-0.25 6.75,-45.78125 9.21875,22.9375 12.3125,-17.65625 -14.90625,-39.21875 -20.5,0 z m 53.90625,0 -12.125,30.09375 21.03125,-30.09375 -8.90625,0 z m -77.1875,40.25 c 0,0 -21.625,0 -21.625,0 -7e-5,5.50785 -1.78132,10.35159 -5.375,14.53125 -4.49225,5.23439 -10.25006,7.84377 -17.28125,7.84375 -7.03129,2e-5 -12.76566,-2.63279 -17.21875,-7.90625 -3.59378,-4.25778 -5.40628,-9.07809 -5.40625,-14.46875 0,0 -21.625,0 -21.625,0 0,10.8594 3.61718,20.39064 10.84375,28.59375 8.24216,9.33594 19.38278,14 33.40625,14 14.06244,0 25.19524,-4.66406 33.4375,-14 7.22647,-8.20311 10.84366,-17.73435 10.84375,-28.59375 z M 440.71875,675.3125 c -2.03126,10e-6 -3.75001,0.69532 -5.15625,2.0625 -1.36719,1.32813 -2.06251,2.95313 -2.0625,4.90625 -10e-6,1.95313 0.69531,3.63281 2.0625,5 1.40624,1.36719 3.12499,2.03125 5.15625,2.03125 1.95311,0 3.60154,-0.66406 4.96875,-2.03125 1.36717,-1.36719 2.06248,-3.04687 2.0625,-5 -2e-5,-1.95312 -0.69533,-3.57812 -2.0625,-4.90625 -1.36721,-1.36718 -3.01564,-2.06249 -4.96875,-2.0625 z m -25.59375,0.0937 -7.34375,10.5 c 0.29172,0.47773 0.64057,0.95307 1.0625,1.375 1.40624,1.36719 3.12499,2.03125 5.15625,2.03125 1.95311,0 3.60154,-0.66406 4.96875,-2.03125 1.36717,-1.36719 2.06248,-3.04687 2.0625,-5 -2e-5,-1.95312 -0.69533,-3.57812 -2.0625,-4.90625 -1.09508,-1.09506 -2.37279,-1.75079 -3.84375,-1.96875 z"
       id="rect3762"
       sodipodi:nodetypes="csccccscscccsccccccccccccccccsssccscscsscssscccccssscc" />
  </g>
</svg>
