<?xml version="1.0" encoding="UTF-8" standalone="no"?>
<!-- Created with Inkscape (http://www.inkscape.org/) -->

<svg
   xmlns:dc="http://purl.org/dc/elements/1.1/"
   xmlns:cc="http://creativecommons.org/ns#"
   xmlns:rdf="http://www.w3.org/1999/02/22-rdf-syntax-ns#"
   xmlns:svg="http://www.w3.org/2000/svg"
   xmlns="http://www.w3.org/2000/svg"
   xmlns:sodipodi="http://sodipodi.sourceforge.net/DTD/sodipodi-0.dtd"
   xmlns:inkscape="http://www.inkscape.org/namespaces/inkscape"
   width="300"
   height="300"
   id="svg1901"
   sodipodi:version="0.32"
   inkscape:version="0.47 r22583"
   sodipodi:docname="pony.svg"
   version="1.1">
  <defs
     id="defs1903">
    <inkscape:perspective
       sodipodi:type="inkscape:persp3d"
       inkscape:vp_x="0 : 526.18109 : 1"
       inkscape:vp_y="0 : 1000 : 0"
       inkscape:vp_z="744.09448 : 526.18109 : 1"
       inkscape:persp3d-origin="372.04724 : 350.78739 : 1"
       id="perspective4926" />
    <inkscape:perspective
       id="perspective5524"
       inkscape:persp3d-origin="0.5 : 0.33333333 : 1"
       inkscape:vp_z="1 : 0.5 : 1"
       inkscape:vp_y="0 : 1000 : 0"
       inkscape:vp_x="0 : 0.5 : 1"
       sodipodi:type="inkscape:persp3d" />
  </defs>
  <sodipodi:namedview
     id="base"
     pagecolor="#ffffff"
     bordercolor="#666666"
     borderopacity="1.0"
     inkscape:pageopacity="0.0"
     inkscape:pageshadow="2"
     inkscape:zoom="4.8014563"
     inkscape:cx="-67.321336"
     inkscape:cy="176.42566"
     inkscape:document-units="px"
     inkscape:current-layer="layer1"
     inkscape:window-width="1280"
     inkscape:window-height="949"
     inkscape:window-x="0"
     inkscape:window-y="25"
     showgrid="false"
     borderlayer="true"
     inkscape:window-maximized="1" />
  <metadata
     id="metadata1906">
    <rdf:RDF>
      <cc:Work
         rdf:about="">
        <dc:format>image/svg+xml</dc:format>
        <dc:type
           rdf:resource="http://purl.org/dc/dcmitype/StillImage" />
        <dc:title></dc:title>
      </cc:Work>
    </rdf:RDF>
  </metadata>
  <g
     inkscape:label="Taso 1"
     inkscape:groupmode="layer"
     id="layer1"
     transform="translate(0,-752.36218)">
    <path
       style="fill:#ff0000;stroke:none"
       d="m 121.89209,879.7236 -0.0953,-3.59512 -245.03866,-3.97903 22.60291,3.88718 222.53105,3.68697 z"
       id="path5577"
       sodipodi:nodetypes="ccccc" />
    <path
       style="fill:#ff6600;stroke:none"
       d="m -97.140937,884.04115 219.169787,0.84042 -0.13676,-5.15797 -222.53108,-3.68697 33.894423,5.82906 -30.39637,2.17546 z"
       id="path5586"
       sodipodi:nodetypes="cccccc" />
    <path
       style="fill:#ffff00;stroke:none"
       d="m -86.583897,894.16604 208.763617,-3.59459 -0.15087,-5.68988 -219.169787,-0.84042 -3.220083,0.23046 48.617348,6.80137 -34.840225,3.09306 z"
       id="path5589"
       sodipodi:nodetypes="ccccccc" />
    <path
       style="fill:#00ff00;stroke:none"
       d="m -73.222957,901.18026 195.559337,-4.70025 -0.15666,-5.90856 -208.763617,3.59459 -34.995253,3.10683 48.356193,3.90739 z"
       id="path5592"
       sodipodi:nodetypes="cccccc" />
    <path
       style="fill:#0000ff;stroke:none"
       d="m -101.37004,908.87429 223.84984,-6.98556 -0.14342,-5.40872 -195.559337,4.70025 16.34645,1.32087 -48.617353,5.78348 4.12382,0.58968 z"
       id="path5595"
       sodipodi:nodetypes="ccccccc" />
    <path
       style="fill:#ff00ff;stroke:none"
       d="m -86.408767,916.96793 209.048547,-9.04568 -0.15998,-6.03352 -223.84984,6.98556 29.203463,4.1759 -14.24219,3.91774 z"
       id="path5598"
       sodipodi:nodetypes="cccccc" />
    <path
       style="fill:#800080;stroke:none"
       d="m 122.63978,907.92225 -209.048547,9.04568 -35.712583,9.8238 244.93022,-12.49231 -0.16909,-6.37717 z"
       id="path5561"
       sodipodi:nodetypes="ccccc" />
    <path
       style="fill:#ffb41e;fill-opacity:1;stroke:none"
       d="m 141.16458,856.0042 c -42.019979,-6.80499 -54.54418,39.1941 -53.470677,60.62327 1.417481,-7.30119 5.392893,-15.10317 9.917123,-15.90011 -5.808772,8.61218 -7.513891,20.72769 -9.559289,32.5527 2.850934,-7.1947 4.777905,-17.35864 9.252573,-19.33533 -5.020969,11.32437 -3.243406,23.22943 -3.348307,34.97371 1.867282,-11.11374 1.74046,-23.83337 8.409107,-31.08047 -2.931718,9.45313 1.16692,15.46155 2.81156,22.67238 0,0 -2.6582,-47.99479 17.84059,-55.32323 0,0 18.14732,-29.18292 18.14732,-29.18292 z"
       id="path5532"
       sodipodi:nodetypes="cccccccccc" />
    <path
       style="fill:#fff7e7;fill-opacity:1;stroke:none"
       d="m 253.65236,818.6422 c -18.45403,-4.77658 -39.18286,38.01632 -55.05537,40.40461 -15.87251,2.38829 -28.83123,-8.80068 -43.17016,-8.11364 -14.33893,0.68704 -34.12206,5.85622 -37.21477,29.64096 -3.09271,23.78473 1.0735,36.96939 -0.86903,40.76448 -1.94253,3.79509 -6.33878,4.97288 -6.33878,9.48772 0,4.51485 0.48564,15.96555 -1.63581,20.77484 -2.12145,4.8093 -14.671208,23.22856 -12.600881,28.69218 2.070327,5.46362 20.601031,7.39388 23.284791,2.38829 2.68376,-5.00559 -7.4634,-15.83468 -3.96174,-27.54711 3.50167,-11.71243 6.84998,-12.6612 8.17907,-16.84888 1.3291,-4.18769 5.08636,-24.3082 16.99714,-29.64095 8.76694,10.24019 6.10874,13.90442 4.83076,17.14333 -1.27798,3.23891 -6.21098,5.56177 -6.84997,11.87601 -0.63899,6.31424 4.08953,17.37234 2.73487,22.77053 -1.35465,5.39819 -8.89474,20.57854 -5.98094,23.35943 2.91379,2.78088 25.78963,4.41669 26.65866,-0.29445 0.86902,-4.71115 -13.11208,-12.30132 -12.19193,-27.61254 0.92015,-15.31122 12.49864,-29.41194 10.93951,-35.39902 13.44434,2.42101 40.76755,3.95867 46.28842,-0.52346 2.63264,22.99955 -2.37704,21.16744 -3.01603,25.74771 -0.60359,4.32647 -1.02238,13.44639 -2.12145,18.22297 -1.09906,4.77658 -10.24939,21.82176 -7.69343,26.59834 2.55596,4.77658 23.56594,3.43521 24.38385,0.35988 0.81791,-3.07533 -8.17907,-13.41368 -8.05127,-18.71372 0.12779,-5.30003 5.51682,-19.3795 5.41863,-23.09769 -0.30671,-11.61428 8.76694,-23.55572 8.76694,-23.55572 4.82048,17.12474 -0.33419,21.90961 -1.17573,28.00513 -0.62299,4.51244 1.12505,8.55323 1.29535,14.90543 0.19917,7.42865 -4.26283,14.64168 -3.59571,17.77814 1.3291,6.24881 18.76073,5.13646 22.92695,1.27593 4.16621,-3.86052 -5.49531,-6.73955 -6.31322,-13.11922 -0.81791,-6.37968 -5.1886,-36.21693 -1.63582,-43.28364 3.55279,-7.06672 10.22384,-16.52173 9.86601,-21.46189 -0.35783,-4.94016 -2.30037,-7.59017 -1.7125,-12.20317 0.58787,-4.61299 9.66153,-28.16872 14.56897,-32.25825 5.85315,9.38957 21.72566,9.61858 21.72566,9.61858 4.933,-5.92164 3.24607,-14.52603 3.24607,-14.52603 0,0 -8.23019,-26.17303 -7.02889,-34.67926 1.2013,-8.50623 0.35783,-15.21307 0.35783,-15.21307 l -6.59437,7.75376 c -5.62311,-6.08523 -12.31973,-3.0099 -17.66168,0.52346 z"
       id="path5530"
       sodipodi:nodetypes="csssssssssscssssssccsssssscsssssssscccsccc" />
    <path
       style="fill:#ffb52c;fill-opacity:1;stroke:none"
       d="m 259.58218,815.86132 c 3.60391,-5.33276 17.81504,-3.46793 23.36147,8.27721 5.54643,11.74515 8.40911,34.22124 3.88506,41.48425 -0.84347,-8.37536 -0.66455,-18.84458 -3.78282,-21.85448 0.0256,9.61859 -0.53675,15.96555 -3.06715,18.61557 -0.84347,-9.35686 -0.23004,-19.43347 -3.29719,-22.47609 0.1278,7.4266 0.74123,7.16487 -1.25242,11.2544 -1.3291,-6.73955 -1.91697,-11.51613 -6.21098,-14.78776 -4.29401,-3.27162 -11.91077,-6.80498 -9.63597,-20.5131 z"
       id="path5534" />
    <path
       style="fill:#000000;fill-opacity:1;stroke:none"
       d="m 265.42383,842.2468 c -0.56097,-3.87976 -8.82666,-3.59994 -8.90752,-1.30865 -0.13597,3.85267 6.25691,5.73709 8.90752,1.30865 z"
       id="path5536"
       sodipodi:nodetypes="csc" />
    <path
       style="fill:#000000;fill-opacity:1;stroke:none"
       d="m 275.99272,863.10344 c -3.09271,1.32501 -7.7522,6.37491 -3.4761,8.65346 2.35073,1.2526 3.16317,0.2393 3.89949,-1.64969 0.72067,-1.84887 -2.29249,-3.63048 -0.42339,-7.00377 z"
       id="path5538"
       sodipodi:nodetypes="cssc" />
    <path
       style="fill:#a17700;fill-opacity:1;stroke:none"
       d="m 251.70791,825.09785 c 0.76679,-10.66551 -0.15336,-11.41798 5.08636,-14.42788 5.23972,-3.0099 1.0735,8.11364 3.75726,12.6612 0.43451,1.73396 -8.40911,2.87903 -8.84362,1.76668 z"
       id="path5540" />
    <path
       style="fill:#e4ba42;fill-opacity:1;stroke:none"
       d="m 255.33737,819.40522 c -12.11525,-8.11364 -36.83138,-3.30435 -43.29795,3.92595 7.10557,-3.10805 12.57532,-2.94446 18.37735,-0.42531 -14.07056,0.14722 -24.66501,5.69263 -30.26256,12.69392 9.43148,-4.31855 16.0003,-4.90745 20.95886,-2.68274 -12.44752,3.17348 -26.55642,7.4266 -31.00378,13.8717 12.60088,-3.92595 24.48609,-1.99569 24.48609,-1.99569 -12.52548,2.3292 -21.44252,6.4391 -28.65231,12.49763 17.02489,0.55813 39.59181,-7.52475 44.37146,-12.2359 4.77964,-4.71114 14.59453,-24.01375 25.02284,-25.64956 z"
       id="path5542"
       sodipodi:nodetypes="ccccccccsc" />
    <path
       style="fill:#e4ba42;fill-opacity:1;stroke:none"
       d="m 156.76496,850.9057 c -0.44553,-9.5e-4 -0.89566,0.01 -1.34375,0.0312 -0.24466,0.0117 -0.50227,0.0481 -0.75,0.0625 -8.53622,6.58995 -14.78707,11.72375 -13.28125,25.78125 1.91697,17.89581 23.96731,30.96555 36.59375,26.15625 12.62644,-4.80929 24.49132,-11.77052 24.03125,-22.46875 -0.24337,-5.65927 -4.04401,-14.01737 -11.46875,-21.28125 -11.90634,-1.24863 -22.45509,-8.25714 -33.78125,-8.28125 z"
       id="path5544" />
    <path
       style="fill:#e4ba42;fill-opacity:1;stroke:none"
       d="m 268.54183,839.43388 c -0.85848,-2.32495 -8.30471,-4.2335 -12.23567,-2.48689 -3.93095,1.74661 -3.1538,2.08205 -2.56641,3.29658 0.58738,1.21453 5.3226,-0.98319 7.53659,-0.46268 2.21399,0.52051 6.00036,2.13989 7.26549,-0.34701 z"
       id="path5549"
       sodipodi:nodetypes="csssc" />
    <path
       style="fill:#f6c030;fill-opacity:1;stroke:none"
       d="m 230.95246,880.7807 c -4.76872,0.0801 -9.32545,1.88272 -13.09375,5.96875 -10.04879,10.89607 -23.68723,13.43541 -21.84375,26.96875 0.37144,2.7268 1.3223,5.69344 2.625,8.6875 4.19987,-0.42293 7.51187,-1.17862 9.0625,-2.4375 1.04583,9.13668 0.86315,14.30452 0.25,17.5625 3.1633,3.88761 6.40052,6.87528 8.84375,8.1875 1.2087,-10.44164 8.59375,-20.1875 8.59375,-20.1875 1.32206,4.69663 1.88381,8.44064 2,11.5625 2.49369,0.35827 5.53162,0.90366 8.21875,0.59375 0.16927,-2.85422 0.57266,-5.18433 1.28125,-6.59375 3.55279,-7.06672 10.23283,-16.52859 9.875,-21.46875 -0.35783,-4.94016 -2.30662,-7.5745 -1.71875,-12.1875 0.20833,-1.63474 1.50463,-5.69181 3.28125,-10.375 -5.47187,-3.93615 -11.5821,-6.37857 -17.375,-6.28125 z"
       id="path5551" />
    <path
       style="fill:#9e770e;fill-opacity:1;stroke:none"
       d="m 98.296209,972.37445 c -1.393344,3.34738 -2.166332,6.23026 -1.53125,7.90625 2.070327,5.46362 20.597491,7.41184 23.281251,2.40625 0.86809,-1.61912 0.38944,-3.86073 -0.53125,-6.53125 -8.51124,4.10872 -16.52981,0.34932 -21.218751,-3.78125 z m 37.625001,5.53125 c -0.68811,2.75712 -0.8521,4.97229 0.0937,5.875 2.91379,2.78088 25.78722,4.42989 26.65625,-0.28125 0.16294,-0.88334 -0.22116,-1.88231 -0.90625,-3 -10.54702,3.30551 -20.23618,0.0823 -25.84375,-2.59375 z m 86.65625,4.03125 c -0.53468,1.75807 -0.874,3.25752 -0.65625,4.28125 1.3291,6.24881 18.74003,5.14178 22.90625,1.28125 1.72375,-1.59727 1.0922,-3.04631 -0.3125,-4.625 -5.73969,6.18902 -17.18902,2.06557 -21.9375,-0.9375 z m -27.53125,2.28125 c -0.6749,2.69818 -0.89829,4.98418 -0.1875,6.3125 2.55596,4.77658 23.55709,3.45033 24.375,0.375 0.20711,-0.77872 -0.19348,-2.05211 -0.9375,-3.5625 -4.51631,3.43136 -17.98577,-0.0387 -23.25,-3.125 z"
       id="path5556" />
  </g>
</svg>
